<?xml version="1.0" encoding="UTF-8"?>
<svg width="398px" height="305px" viewBox="0 0 398 305" version="1.1" xmlns="http://www.w3.org/2000/svg" xmlns:xlink="http://www.w3.org/1999/xlink">
    <!-- Generator: Sketch 53.2 (72643) - https://sketchapp.com -->
    <title>Group 5</title>
    <desc>Created with Sketch.</desc>
    <defs>
        <filter x="-0.2%" y="-0.5%" width="100.3%" height="101.0%" filterUnits="objectBoundingBox" id="filter-1">
            <feOffset dx="0" dy="1" in="SourceAlpha" result="shadowOffsetOuter1"></feOffset>
            <feColorMatrix values="0 0 0 0 0.874509804   0 0 0 0 0.874509804   0 0 0 0 0.874509804  0 0 0 1 0" type="matrix" in="shadowOffsetOuter1" result="shadowMatrixOuter1"></feColorMatrix>
            <feMerge>
                <feMergeNode in="shadowMatrixOuter1"></feMergeNode>
                <feMergeNode in="SourceGraphic"></feMergeNode>
            </feMerge>
        </filter>
    </defs>
    <g id="Gratitude-V1---Web-Landing-Pages" stroke="none" stroke-width="1" fill="none" fill-rule="evenodd">
        <g id="Splash_1-Copy-2" transform="translate(-1018.000000, -140.000000)">
            <g id="Group-Copy-3" filter="url(#filter-1)" transform="translate(2.000000, 2.000000)">
                <g id="Text-Block" transform="translate(250.000000, 133.000000)">
                    <g id="Group-5">
                        <g transform="translate(758.000000, 0.000000)">
                            <g id="Scene/Plants">
                                <g id="Background-Shape-2" opacity="0.504510789" stroke-width="1" transform="translate(30.146012, 157.334559)" fill="#F2F2F2">
                                    <path d="M345.396543,71.8022104 C350.433486,103.894745 228.279052,124.827608 123.1379,110.219068 C17.9967479,95.6105279 -30.2370276,38.5625317 19.9345774,8.1651168 C70.1061823,-22.2322981 340.3596,39.7096754 345.396543,71.8022104 Z" id="Background-Shape"></path>
                                </g>
                                <path d="M342.411111,116.126736 C344.428719,115.254674 346.990999,116.522988 345.762303,119.043501 C344.4462,121.74257 340.1133,121.549688 337.670143,121.366783 C337.915633,121.366783 338.836655,118.876712 339.126597,118.508343 C339.98169,117.421655 341.170677,116.663941 342.411111,116.126736 Z M317.159637,164.431511 C316.64127,164.829701 317.117175,164.469167 317.159637,164.431511 Z M343.651139,128.711641 C344.755823,129.651645 344.729313,131.207686 343.734172,132.209721 C342.549206,133.402619 340.507654,133.249928 338.988307,133.048015 C338.301037,132.956601 334.631345,132.468392 335.536451,131.91112 C335.467924,131.932969 335.324368,131.987214 335.169807,132.063057 C335.073519,132.354125 334.97323,132.643936 334.869439,132.932241 C334.890447,132.946053 334.908204,132.960619 334.930713,132.974432 C334.906203,132.962126 334.889197,132.949318 334.867688,132.937012 C333.82803,135.818552 332.420477,138.54037 330.632024,141.062031 C331.262772,140.851077 331.912527,140.700395 332.566034,140.652428 C334.501294,140.510033 338.467353,142.216004 336.182705,144.663078 C333.992094,147.008944 330.919887,144.208018 328.598725,143.72232 C326.162768,146.771369 323.500973,149.676264 320.724382,152.473423 C320.882444,152.532189 321.017997,152.644447 321.090275,152.811955 C322.17045,152.333289 323.306896,151.627093 324.291533,151.471388 C325.712341,151.247123 328.603227,151.217489 329.599369,152.530933 C330.8246,154.145992 329.358524,155.328845 327.799661,155.544571 C325.539273,155.857487 322.667145,154.610594 320.552564,153.75899 C320.303967,153.789629 320.038862,153.703489 319.888553,153.49806 C319.841785,153.479978 319.795017,153.462147 319.749499,153.444819 C316.940395,156.225904 314.034754,158.90528 311.14912,161.523629 C311.178381,161.523629 311.207643,161.523378 311.238155,161.523378 C311.977695,161.091925 312.764755,160.747366 313.606585,160.589401 C315.5541,160.221486 317.816739,160.337762 319.304324,161.810929 C320.786156,163.277817 321.209822,165.729663 319.520159,167.201071 C316.13808,170.1464 311.767613,162.797644 310.159481,162.416168 C307.22858,165.047576 304.147369,167.48812 301.022641,169.873917 C301.367777,169.78828 301.720165,169.730518 302.082058,169.715199 C305.030216,169.588124 311.727097,173.545282 307.94161,176.89494 C304.642814,179.8139 301.322759,173.688932 298.903309,171.48094 C295.960152,173.702995 293.00249,175.907974 290.119608,178.208886 C291.642956,177.888687 293.098028,177.906016 294.683151,178.4771 C296.323295,179.068778 298.946576,180.46811 297.775115,182.663043 C296.583647,184.895145 293.4089,183.684667 291.765004,182.86998 C290.868402,182.425719 289.099207,180.991981 287.513834,180.344049 C282.900522,184.263787 278.853432,188.63532 275.688688,193.869005 C273.712912,197.136793 272.159051,200.657225 271.004348,204.298704 C270.267308,206.622972 268.851002,210.517346 268.932284,213.597033 C268.100457,207.397477 270.572678,200.133605 273.107174,194.764055 C275.43759,189.826461 278.761645,185.558898 282.59215,181.761463 C281.8266,178.980378 274.383675,174.636972 279.089774,172.337064 C281.588506,171.121563 283.958937,173.479986 284.366097,175.867541 C284.645707,177.508216 283.983447,179.516554 283.311433,181.059537 C284.514406,179.903807 285.760395,178.789514 287.040398,177.716157 C288.809343,176.232693 290.616303,174.796946 292.438769,173.38129 C289.707196,170.531644 287.392536,162.67308 291.310826,161.613033 C297.096599,160.052973 293.806056,170.434454 293.30586,172.386287 C293.192815,172.38704 293.106781,172.348365 293.046007,172.27202 C293.068516,172.454345 293.095527,172.649478 293.130291,172.84662 C296.617661,170.152176 300.151549,167.51675 303.580396,164.750482 C303.296785,164.516925 302.871368,163.659042 302.525982,163.196198 C301.746426,162.152726 301.005134,161.06656 300.48468,159.866379 C299.662607,157.969796 298.93082,154.974993 301.423799,154.015401 C304.135114,152.969668 305.21929,156.370308 305.133506,158.360564 C305.073983,159.737044 304.630809,161.024369 304.364954,162.362676 C304.281922,162.780065 304.417475,164.6882 303.887267,163.842623 C303.898521,164.14474 303.891018,164.362727 303.86951,164.516422 C304.485252,164.017163 305.096742,163.511876 305.704731,163.002572 C305.681472,162.933007 305.665465,162.857666 305.665465,162.771275 C305.665465,162.176584 306.274205,161.979441 306.683615,162.175077 C307.486681,161.488218 308.282744,160.791817 309.066051,160.080096 C310.726204,158.572273 312.411616,157.020249 314.087774,155.432815 C313.758645,155.118643 313.917207,154.715821 313.611337,154.384571 C313.305967,154.054076 312.681222,153.847391 312.318079,153.536232 C311.40472,152.753189 310.671432,151.643668 310.15573,150.562525 C309.304395,148.776191 308.277492,145.068663 311.07384,144.38507 C313.956223,143.679125 315.212716,147.262089 315.280243,149.464556 C315.293498,149.891237 314.774794,153.702485 314.45842,155.079717 C317.560639,152.128863 320.620591,149.058971 323.411688,145.91876 C322.617876,145.869789 320.451525,144.124641 320.019605,143.656774 C318.965691,142.515609 317.325546,140.030112 319.339087,138.865843 C321.129291,137.833421 323.178096,139.572039 323.835604,141.191869 C323.943647,141.458576 324.245765,143.904143 324.222256,144.993071 C325.379211,143.660038 326.486646,142.316207 327.522302,140.964088 C328.212824,140.065271 328.862579,139.139582 329.47482,138.191541 C329.343768,138.107913 329.223721,137.967779 329.112427,137.795499 C326.250553,137.154096 322.805199,132.455835 326.279064,131.066045 C327.932964,130.405305 329.60362,132.035683 330.328655,133.336822 C330.477213,133.603026 330.67179,134.912452 330.831853,135.945628 C332.615554,132.792107 334.028609,129.428635 335.15155,125.962952 C334.903452,125.88736 334.700623,125.68419 334.689868,125.352439 C333.329834,124.47974 332.257663,123.756215 331.35956,122.168028 C330.801591,121.181564 329.820956,118.943184 331.635168,118.50696 C333.996096,117.939392 335.270347,121.566807 335.368885,123.325767 C335.38039,123.529941 335.348627,124.120363 335.312613,124.66106 C335.393895,124.65428 335.475427,124.659805 335.554708,124.678137 C336.202713,122.529665 336.744426,120.34754 337.199104,118.157127 C335.951614,117.682228 336.081415,111.006769 336.976017,110.102175 C338.975802,108.076508 340.147263,111.215463 339.96144,112.83228 C339.742103,114.738657 338.784227,116.433075 337.67129,117.923068 C337.551993,118.080782 337.584006,118.074503 337.567249,117.845216 C337.54549,117.956971 337.503474,118.038088 337.444451,118.095348 C337.444951,119.104916 337.49472,120.141106 337.398183,121.029375 C337.121574,123.573137 336.689904,126.123679 336.126433,128.619474 C335.989379,129.226471 335.837319,129.827691 335.671004,130.422885 C336.736423,129.607445 338.151979,128.907527 338.702695,128.694312 C340.132007,128.141561 342.319616,127.578513 343.651139,128.711641 Z M268.768066,213.597033 C268.786225,214.490094 268.904068,215.313103 269.16866,216.000593 C268.983927,215.223965 268.853114,214.420041 268.768066,213.597033 Z" id="Leaf-Bottom" fill="#F2F2F2" transform="translate(307.425336, 162.721662) scale(-1, 1) rotate(-3.000000) translate(-307.425336, -162.721662) "></path>
                                <path d="M94.821431,17.0885347 C96.2625797,16.4656333 98.0927797,17.3715721 97.2151399,19.1719382 C96.2750665,21.0998448 93.1801376,20.9620719 91.4350259,20.8314252 C91.6103754,20.8314252 92.2682485,19.0528031 92.4753501,18.7896825 C93.0861303,18.0134767 93.9354073,17.4722523 94.821431,17.0885347 Z M76.7652105,52.1677866 C76.2468425,52.5659765 76.7227476,52.2054424 76.7652105,52.1677866 Z M95.9742098,26.3287 C96.7808044,27.0083951 96.7614476,28.133533 96.0348368,28.8580811 C95.1696238,29.7206384 93.6789667,29.6102311 92.5696023,29.4642319 C92.0677861,29.3981328 89.3883287,29.0451199 90.0491994,28.6421694 C89.9991639,28.6579678 89.8943449,28.6971915 89.7814911,28.752032 C89.7111857,28.962496 89.6379585,29.172052 89.5621747,29.3805185 C89.5775141,29.390506 89.5904795,29.4010382 89.6069145,29.4110257 C89.5890186,29.4021278 89.576601,29.3928666 89.5608965,29.3839687 C88.8017808,31.4675439 87.7740436,33.4356272 86.4681893,35.2589825 C86.9287353,35.106446 87.4031598,34.9974914 87.8803235,34.9628076 C89.2933707,34.8598455 92.1892227,36.0933932 90.5210673,37.8628159 C88.9215738,39.5590575 86.6783751,37.533773 84.9835584,37.182576 C83.2049231,39.3872724 81.2613897,41.4877356 79.2340377,43.5102962 C79.3494481,43.5527885 79.4484235,43.6339597 79.5011982,43.7550809 C80.2898969,43.4089684 81.1196833,42.8983345 81.8386244,42.7857481 C82.87604,42.6235873 84.9868454,42.6021596 85.7141867,43.5518805 C86.6088001,44.7196923 85.5383319,45.5749859 84.4001149,45.7309726 C82.7496728,45.957235 80.6525632,45.0556357 79.1085836,44.4398606 C78.9270679,44.4620147 78.7334997,44.399729 78.6237503,44.2511875 C78.5896019,44.238113 78.5554536,44.22522 78.5222183,44.2126902 C76.4711268,46.223629 74.3495472,48.1610235 72.2425766,50.0542913 C72.2639421,50.0542913 72.2853077,50.0541097 72.3075863,50.0541097 C72.8475682,49.7421363 73.4222464,49.4929935 74.0369165,49.3787727 C75.4589116,49.1127419 77.1109972,49.1968185 78.19717,50.2620314 C79.2791427,51.3227045 79.5884864,53.0955774 78.3547636,54.1595191 C75.8853093,56.2892185 72.6941746,50.9755025 71.5199832,50.6996657 C69.3799599,52.6023763 67.1301871,54.3670777 64.8486399,56.0921922 C65.1006437,56.0302697 65.3579432,55.9885038 65.6221819,55.9774267 C67.7748054,55.8855417 72.6645916,58.7468711 69.900585,61.168932 C67.4919403,63.2795642 65.0677736,58.8507412 63.3011907,57.2541931 C61.1522194,58.8609103 58.9926567,60.4552793 56.8876948,62.1190161 C57.999981,61.8874876 59.0624143,61.9000174 60.2198055,62.3129553 C61.4173712,62.7407837 63.3327825,63.7526088 62.4774305,65.3397142 C61.6074697,66.953695 59.2894003,66.0784264 58.0890953,65.4893452 C57.4344334,65.1681107 56.1426402,64.1314076 54.9850663,63.6629028 C51.6166159,66.4971753 48.6615978,69.6581299 46.3508328,73.4424865 C44.9082026,75.8053486 43.7736378,78.3508913 42.9305208,80.9839609 C42.3923649,82.6645857 41.3582364,85.4805174 41.4175852,87.7073679 C40.8102195,83.2246123 42.6153335,77.9722741 44.4659177,74.0896768 C46.167491,70.519416 48.5945794,67.4336401 51.3914561,64.6878025 C50.8324825,62.6768637 45.3979664,59.5362472 48.8341656,57.8732368 C50.6586364,56.9943363 52.3894275,58.6996575 52.6867189,60.4260432 C52.8908785,61.6123772 52.4073234,63.0645605 51.9166465,64.1802556 C52.7950075,63.3445738 53.7047776,62.5388545 54.6393829,61.7627346 C55.9309935,60.6900765 57.2503611,59.6519207 58.5810505,58.6282922 C56.5865685,56.5677791 54.8964998,50.8854333 57.757473,50.1189377 C61.9820057,48.9908943 59.5793872,56.4975033 59.2141643,57.9088286 C59.131624,57.9093734 59.0688057,57.8814084 59.0244311,57.8262047 C59.0408661,57.9580398 59.0605881,58.099136 59.0859711,58.241685 C61.6323049,56.2933951 64.2126043,54.387779 66.716207,52.3875541 C66.5091256,52.2186745 66.1985036,51.5983596 65.9463172,51.2636874 C65.3771174,50.5091767 64.8358571,49.7237956 64.4558427,48.8559722 C63.855599,47.484597 63.3212779,45.3191242 65.1415486,44.625265 C67.1212391,43.86912 67.9128597,46.3280438 67.8502239,47.7671526 C67.8067624,48.7624529 67.483175,49.6932884 67.289059,50.6609868 C67.228432,50.9627911 67.3274074,52.3425195 66.9402712,51.7311026 C66.9484887,51.9495566 66.9430104,52.1071776 66.9273058,52.2183113 C67.3768951,51.8573084 67.8233801,51.4919473 68.2673084,51.1236807 C68.2503256,51.07338 68.2386384,51.0189027 68.2386384,50.9564354 C68.2386384,50.5264279 68.6831147,50.383879 68.9820496,50.5253383 C69.5684149,50.0286869 70.149667,49.5251351 70.721606,49.0105062 C71.9337807,47.9202338 73.1643991,46.7980014 74.3882608,45.6501646 C74.1479442,45.4229943 74.2637199,45.1317223 74.0403861,44.8922038 C73.8174175,44.65323 73.3612542,44.5037806 73.0961024,44.2787893 C72.4292055,43.7125886 71.8937888,42.9103195 71.517244,42.1285702 C70.8956347,40.8369134 70.1458322,38.1560854 72.1876105,37.6617947 C74.2922072,37.1513424 75.209647,39.7421012 75.2589521,41.3346544 C75.2686305,41.6431775 74.8898944,44.3990026 74.658891,45.3948477 C76.9240031,43.2611533 79.1582539,41.0413849 81.1961974,38.770771 C80.6165888,38.7353607 79.0348086,37.4734848 78.7194387,37.1351808 C77.9499141,36.3100312 76.7523484,34.5128251 78.222553,33.6709691 C79.5296856,32.9244485 81.0256384,34.1816031 81.5057238,35.352865 C81.5846119,35.5457147 81.8052066,37.3140479 81.7880411,38.1014265 C82.6328015,37.1375414 83.4414049,36.165848 84.1975989,35.188162 C84.701789,34.5382478 85.1762135,33.8689033 85.6232463,33.1833973 C85.5275579,33.1229275 85.4399044,33.0215997 85.3586423,32.8970283 C83.2690197,32.4332449 80.7533647,29.0360403 83.2898374,28.0311157 C84.4974468,27.5533498 85.7172911,28.7322386 86.2466817,29.6730616 C86.3551529,29.865548 86.4972245,30.8123635 86.6140959,31.5594289 C87.9164806,29.2791907 88.9482351,26.8471423 89.7681604,24.3411865 C89.5870099,24.2865276 89.438912,24.1396204 89.4310597,23.8997387 C88.4380188,23.26871 87.6551636,22.7455463 86.999406,21.5971648 C86.5919999,20.8838753 85.8759805,19.2653547 87.2006438,18.9499311 C88.9244956,18.5395354 89.8549008,21.1624359 89.9268498,22.4342993 C89.9352499,22.5819328 89.9120582,23.0088532 89.8857622,23.3998187 C89.9451109,23.3949157 90.0046422,23.3989107 90.06253,23.4121669 C90.5356762,21.8586558 90.9312126,20.2808116 91.2632002,18.6969748 C90.3523344,18.3535862 90.4471097,13.5267157 91.1003108,12.8726249 C92.5604717,11.4079118 93.4158237,13.6776178 93.2801434,14.8467007 C93.1199932,16.225158 92.4205914,17.4503526 91.6079705,18.527732 C91.5208649,18.6417711 91.5442392,18.6372314 91.5320042,18.4714388 C91.516117,18.5522468 91.4854383,18.6109007 91.442342,18.6523034 C91.4427072,19.3822993 91.4790469,20.1315438 91.4085589,20.7738311 C91.2065906,22.6131664 90.8914033,24.4574047 90.4799798,26.2620561 C90.3799087,26.7009616 90.268881,27.1356904 90.1474444,27.5660611 C90.925369,26.9764351 91.9589497,26.470341 92.3610601,26.3161702 C93.4046844,25.9164884 95.0019865,25.5093614 95.9742098,26.3287 Z M41.2599304,87.5234918 C41.2780887,88.1188663 41.3959321,88.6675384 41.6605239,89.1258657 C41.4757914,88.6081137 41.3449778,88.0721639 41.2599304,87.5234918 Z" id="Leaf-Top" fill="#C1DEE2" opacity="0.2" transform="translate(69.351929, 50.760830) rotate(-3.000000) translate(-69.351929, -50.760830) "></path>
                                <g id="Plant-Right" opacity="0.7" stroke-width="1" transform="translate(302.086053, 128.323442)">
                                    <path d="M32.0093223,45.2832375 C26.5405372,45.5727247 20.1475828,49.4545673 20.1886859,55.4278407 C20.2186702,59.7679366 20.7994177,64.0376567 20.5979069,68.3955963 C20.4365642,71.8785126 19.6792255,75.2852923 18.5027773,78.5660935 C17.3715514,81.7209301 14.6389394,84.5924633 14.195506,87.8823806 C13.9128339,89.9786587 14.4935262,92.8246956 15.3897678,94.7519326 C16.4796646,97.0951321 16.0159972,96.9496174 14.5678101,99.1640792 C11.73006,103.503751 9.22732825,107.911131 7.65462274,112.903236 C5.38918983,120.09366 4.27491164,128.337314 6.17507251,135.7478 C6.41665526,136.688846 6.94443707,140.101391 8.28584387,140.20281 C9.7840385,140.31636 8.89047848,138.426845 8.74539248,137.80139 C7.82025966,133.810536 7.00436143,130.322875 7.17606309,126.152872 C7.83877147,110.063622 18.1082276,98.4296112 24.0960827,84.2040765 C24.4300649,83.4678265 25.1154396,81.7262184 25.5981526,80.5740164 C26.360243,78.754945 26.9641458,75.382515 28.1064948,73.9730125 C30.2578628,71.3176917 28.555509,76.3801858 28.1840141,77.3515259 C27.7143697,78.5801835 27.1931359,79.888326 26.6936695,80.9741766 C24.4147523,86.003646 21.8587953,91.5009319 19.5041706,96.6860039 C32.2046748,98.2084221 39.3727282,82.3787117 41.670878,72.2253979 C43.564398,63.8601801 44.8608345,44.6312344 32.0093223,45.2832375" id="Leaf-Me-Alone!" fill="#69A1AC" transform="translate(24.035608, 92.737389) scale(-1, 1) rotate(6.000000) translate(-24.035608, -92.737389) "></path>
                                    <path d="M84.4472551,31.2948426 C75.3046163,32.0202398 69.435243,38.0530761 66.7030298,46.4910882 C65.2304646,51.0383947 65.0616805,55.7098044 64.2433642,60.3829003 C63.0123522,67.4136215 60.3636889,72.7416321 55.1873072,77.7506163 C53.584027,79.3019074 52.4025385,80.8946787 51.5626609,82.5987383 C49.8953708,84.3001 48.4440299,86.2253872 47.3777593,88.5793029 C46.0156955,91.5854353 45.6302883,95.1921872 47.2029112,98.1892142 C47.6257136,98.9948739 48.6805298,100.612264 49.7737519,101.347103 C45.6808225,110.064011 43.4303682,119.610859 43.6840497,129.145566 C43.8373366,134.901193 44.1183065,140.659181 44.4461047,146.407727 C44.534371,147.951262 45.0370174,150.5001 45.7919976,147.911468 C46.4829679,145.543725 45.6164757,141.826697 45.5362948,139.353062 C45.1461712,127.302902 44.8126458,116.346403 49.7730781,105.088076 C50.293243,103.908083 50.8447391,102.737532 51.4191439,101.576425 C51.4528334,101.556865 51.4841645,101.533258 51.5158326,101.510326 C51.5377307,101.527188 51.5576075,101.545399 51.5795056,101.561924 C51.6162271,101.4965 51.6664244,101.418598 51.725044,101.331591 C51.8897853,101.161623 52.0336392,100.946803 52.1704183,100.707027 C52.6104023,100.097302 53.1083322,99.3810105 53.1110273,98.9888037 C53.1110273,98.9857685 53.1093429,98.9810472 53.1093429,98.9780121 C56.1801348,93.9653183 59.6973118,89.2288218 63.2899532,84.5850655 C63.2630016,84.6187892 67.1868101,79.2762774 66.5800634,82.2308125 C66.2876391,83.654628 63.4014652,86.3660151 62.2358107,87.8741399 C59.6572214,91.2293128 56.629215,95.480525 54.1129511,99.5914465 C53.7743723,99.7860324 53.2959823,100.741425 52.9499918,101.452996 C52.7589727,101.813502 52.5807556,102.177044 52.4055706,102.49371 C61.3214795,105.439477 68.2571234,99.5057883 72.9864463,92.6042289 C72.9921735,92.5961352 72.9972269,92.5877043 73.0026172,92.5796106 C74.4418299,90.6725342 75.9160795,88.7789473 77.7578809,87.271497 C80.8306943,84.7560447 84.1214783,84.3122406 87.7444401,83.0742428 C97.6245406,79.6984984 101.825276,66.893939 103.159378,57.3929553 C104.664622,46.674208 97.3017958,30.2379412 84.4472551,31.2948426" id="Leaf-Me-Alone!" fill="#89C5CC"></path>
                                    <path d="M74.9459449,3.31766641 C64.2946439,11.6827122 57.9202506,24.4655974 52.5933146,36.5763308 C46.6437576,50.1028078 42.0114582,64.036009 39.8527702,78.6653845 C38.4346902,88.2769653 36.8123817,97.9211044 36.0233825,107.609708 C35.7429458,111.05058 35.6026829,114.517234 35.6691234,117.969443 C35.674686,118.253136 35.8254937,125.961659 37.2303727,124.367788 C38.0293589,123.46139 37.0888553,116.373422 37.1049755,115.217157 C37.1970443,108.704796 37.91541,102.232308 38.8605912,95.7926565 C40.4167049,85.1899828 41.5875711,74.5885625 44.1490369,64.1669685 C44.5312298,62.6109293 44.8911454,60.9707661 45.4831341,59.4791888 C46.111948,57.8933517 45.5041997,58.538763 46.8923404,58.0710689 C48.2411824,57.6162725 49.7855682,57.925347 51.2043466,57.3164183 C56.832116,54.9006636 60.6201156,47.1961794 63.4296106,42.1865378 C66.6429376,36.4578118 68.9864544,30.1967579 71.0291985,23.9799359 C72.5294596,19.4121929 73.7858855,14.8392465 74.7935283,10.1407424 C75.1110472,8.65992915 75.3372846,7.09653161 75.8379881,5.66697981 C75.972912,5.28134471 76.468954,4.63532669 76.5039292,4.28193605 C76.5779035,3.53401285 76.1905027,3.03358406 76.2415757,2.40356083 C75.8034072,2.69894995 75.3711177,3.00385652 74.9459449,3.31766641" id="Leaf-Me-Alone!" fill="#89C5CC" transform="translate(56.083086, 63.494065) rotate(-8.000000) translate(-56.083086, -63.494065) "></path>
                                    <path d="M15.2225519,131.394659 C15.2225519,147.5453 28.3152338,160.637982 44.4658754,160.637982 C60.6165169,160.637982 73.7091988,147.5453 73.7091988,131.394659" id="Base" fill="#89C5CC"></path>
                                    <path d="M46.8122689,131.487743 L45.2670623,131.487743 C45.3742778,129.549062 45.5158908,127.613773 45.8399863,125.696676 C47.0795708,118.364676 50.9554643,107.595887 59.456195,106.405825 C59.7698004,106.361473 60.9233963,106.354024 62.3207952,106.435957 C62.9830759,106.065904 63.7249382,105.842111 64.5065914,105.790649 C71.7441328,105.257068 79.8267229,111.095989 83.3178596,117.172245 C86.1322155,122.071304 85.658098,128.504409 83.9197797,133.709195 C82.7557302,137.193723 80.215189,142.16185 75.9784806,142.210265 C70.6778743,142.270868 70.422269,135.719604 70.3197571,131.889737 C70.1835242,126.798033 69.5401273,122.362472 65.5280009,118.891825 C64.5929172,118.083328 63.5708332,117.371999 62.6263076,116.574675 C61.1473039,115.326718 59.5128463,114.048967 59.3223225,111.984388 C59.0592986,109.136026 60.6671166,108.623436 63.1220065,109.152616 C63.5404843,109.242675 67.7559484,111.134247 67.1317724,109.639136 C66.9412486,109.18241 66.2452469,108.820482 65.3668145,108.54929 C63.0936808,108.302137 60.3828484,108.015371 59.6032186,108.186685 C51.192523,110.031874 47.9178753,121.682291 47.0482103,129.084374 C46.9543531,129.883349 46.878455,130.68493 46.8122689,131.487743 Z" id="Leaf-Me-Alone!" fill="#69A1AC"></path>
                                </g>
                                <g id="Plant-Left" opacity="0.5" stroke-width="1" transform="translate(8.813056, 76.646884)">
                                    <path d="M71.3949624,44.6439463 C73.078388,42.2435866 76.202344,36.147461 78.571734,35.2897404 C80.0978402,34.737289 79.6528823,40.451975 79.6717288,41.5416402 C79.7451225,45.7573834 79.334705,49.9463955 78.8278723,54.1267437 C77.9147632,61.6659846 74.9289762,68.3802517 70.833748,74.7969214 C68.7264304,78.0986885 66.254714,81.4404909 62.8312712,83.5006353 C61.2554572,84.4493735 59.3593572,84.6082237 57.8031419,85.4256388 C55.990702,86.3772168 56.9777532,85.6079659 56.1609483,87.4966195 C55.0266418,90.1187625 54.6638259,93.5016065 54.1390001,96.2995264 C51.7292573,109.143499 45.8953152,177.040087 46.906697,190.104862 C46.9965239,191.262866 45.3818358,191.539785 45.3012296,190.126104 C44.872794,182.630371 48.5801455,130.722535 50.4505671,113.74718 C52.3209888,96.7718248 54.2137701,81.7749478 56.1116584,75.9020065 C58.4140798,68.7768805 62.5723846,60.2083663 66.0338829,53.5638778 C67.6417228,50.4769985 69.3943001,47.4964604 71.3949624,44.6439463 Z" id="Leaf" fill="#69A1AC"></path>
                                    <path d="M83.8899341,127.900588 C88.270438,124.684597 93.0120044,130.754132 89.0480997,133.970618 C86.8567592,135.748497 84.5658407,135.116057 83.2761159,133.634457 C82.4388789,134.655005 81.6552533,135.722087 80.902291,136.6234 C78.6082071,139.369874 76.439951,142.1819 74.3677266,145.059494 C70.0630007,151.037624 66.3739284,157.353392 62.5167407,163.55367 C58.7102008,169.673007 54.9340983,175.823688 51.4839018,182.098064 C48.5610956,187.413982 44.6653662,193.667733 43.6646884,199.495549 C45.182982,187.135759 50.9442182,175.255813 57.8048456,164.359712 C64.6096477,153.553122 72.4189488,141.751125 82.9553071,133.2228 C81.8829638,131.645848 81.8531953,129.394868 83.8899341,127.900588 Z" id="Leaf" fill="#C1DEE2"></path>
                                    <path d="M0.76641407,97.7571326 C3.21774328,98.2365323 7.22318758,103.781821 9.24381383,105.894619 C11.6451923,108.405383 13.8238386,111.0815 15.8774691,113.885405 C20.298515,119.920695 24.2523635,126.337461 27.6144797,133.029024 C33.0956095,143.93761 37.4867071,155.135652 40.6735145,167.014492 C42.6242749,174.285959 43.8873115,181.822552 44.635855,189.306515 C44.7772206,190.717945 46.257009,201.599807 44.1247246,201.893104 C42.2069596,202.157198 42.7992856,193.630282 42.7067673,192.470412 C41.6609486,179.384902 38.5279722,166.652811 34.1700307,154.319062 C33.2208086,151.632272 32.3389477,148.341434 30.8209175,145.923582 C29.7277231,144.182041 30.8130779,144.789373 28.8919325,144.130284 C27.2423231,143.564012 25.3628279,143.702384 23.6735905,143.009221 C20.0038891,141.504301 17.0655111,138.582802 14.4898216,135.644118 C9.48435406,129.933043 5.51777568,123.754554 3.45016595,116.436655 C2.30319902,112.379119 1.24919495,108.297981 0.664287414,104.114977 C0.512982019,103.033794 -0.812468571,97.4483549 0.76641407,97.7571326 Z" id="Leaf" fill="#69A1AC"></path>
                                    <path d="M10.4400119,5.49455283 C19.6736613,21.5080283 27.2614962,39.0984113 32.1610159,56.914809 C35.1295401,67.7095714 37.2055181,78.7865838 39.2681676,89.78358 C42.4618083,106.811057 45.482626,123.837221 46.3419057,141.167157 C47.2063961,158.597525 48.9158676,178.701406 43.2083461,195.489614 C46.0592817,178.445022 43.3449975,160.30238 42.8644079,143.152005 C42.6347457,134.964694 41.9692273,126.857427 41.0961915,118.717958 C40.2489972,110.822236 38.8649215,102.964112 37.5760351,95.1304499 C36.9481947,91.3153149 36.2888207,87.5059203 35.6174865,83.6986093 C35.4170702,82.5626935 35.3324101,79.1920346 34.6118522,78.4160404 C33.8866276,77.6349368 30.186436,77.3165074 29.0247472,76.7433802 C26.685505,75.5890319 24.4851321,73.9493638 22.5377448,72.2168445 C18.8045779,68.8956488 15.5569106,64.5561031 12.9935918,60.2782978 C7.06273678,50.3801293 4.69158385,38.3007595 4.8114315,26.837421 C4.83445869,24.6117586 8.41382412,0.644935987 6.97629339,0.314893014 C7.06284493,0.213528089 7.14471607,0.108865755 7.22191368,0 C8.31024763,1.82221338 9.37821854,3.65677567 10.4400119,5.49455283 Z" id="Leaf" fill="#89C5CC"></path>
                                    <path d="M110.101578,63.2486167 C110.24405,63.043119 111.171317,61.6139442 110.704374,61.7052817 C111.655086,61.5193153 109.396731,63.2815094 111.765579,62.2002352 C110.640833,63.2624851 111.28996,64.6423646 111.304972,66.0720366 C111.329465,68.3931889 110.941101,70.6953071 110.503932,72.9666564 C109.813137,76.5569664 108.784038,80.047797 107.290319,83.3872166 C104.034713,90.6645713 98.5065277,97.6703552 91.9435439,102.220104 C88.7035804,104.466498 85.5282719,105.231312 81.8330916,106.265467 C79.4990592,106.918811 79.3139668,108.126171 78.0750568,110.391087 C75.4957392,115.108425 72.9623566,119.808793 70.6876275,124.685294 C67.97145,130.508349 65.3346968,136.337822 62.8474732,142.263384 C54.4684628,162.223325 47.6487256,182.902123 44.0672081,204.302671 C43.9795175,191.691393 46.8969306,178.702856 50.5769651,166.682211 C53.2576488,157.924242 56.7473956,149.481825 60.4695513,141.124873 C61.371505,139.100303 62.7383339,136.49602 63.1213644,134.260807 C63.3895624,132.694706 62.5696018,131.188577 62.1941785,129.538811 C60.7305707,123.114316 60.835326,115.916812 62.1205912,109.457966 C63.5376947,102.335863 67.6358924,99.0302532 74.5685232,98.0214533 C77.1039251,97.6524446 80.3264862,97.7876887 82.6513248,96.7066406 C85.1842016,95.5294144 86.2290515,91.6598872 87.6693379,89.1759548 C91.5378985,82.5035878 96.1343084,76.1043803 101.412256,70.4823576 C102.87367,68.925548 104.445285,67.4892856 106.112592,66.1580465 C107.163995,65.3181086 109.385054,64.2833064 110.101578,63.2486167 Z" id="Leaf" fill="#89C5CC"></path>
                                    <path d="M32.3645288,190.682493 L56.9678155,190.682493 C58.0740238,190.682493 58.9707828,191.579252 58.9707828,192.68546 C58.9707828,192.783261 58.9636196,192.880931 58.9493507,192.977686 L57.04774,205.87217 C56.4680404,209.80301 53.0949548,212.715134 49.121599,212.715134 L40.2107452,212.715134 C36.2373894,212.715134 32.8643039,209.80301 32.2846042,205.87217 L30.3829935,192.977686 C30.2216013,191.883315 30.9779306,190.865317 32.0723024,190.703925 C32.1690573,190.689656 32.2667273,190.682493 32.3645288,190.682493 Z" id="Base" fill="#C1DEE2"></path>
                                </g>
                                <g id="Maceta" stroke-width="1" transform="translate(12.818991, 254.510386)" fill="#F2F2F2">
                                    <path d="M6.17623859,19.4110356 C6.17623859,27.9386415 6.84918883,34.851632 15.8817564,34.851632 C24.9143239,34.851632 25.5872742,27.9386415 25.5872742,19.4110356" id="Base"></path>
                                    <path d="M18.5688763,14.0905415 C18.2377864,14.663005 17.9425667,15.2469177 17.681801,15.8395963 C17.6725975,14.6189968 17.7400898,13.3894526 17.9243957,12.1430923 C18.2394384,10.0081612 18.7206159,7.88432171 19.1727671,5.76388118 C19.4977212,4.24005494 19.4771904,1.5029639 20.7104587,0.288625728 C21.0486281,0.0261869984 21.1300436,0.541046346 21.1300436,0.764486 C21.1342914,0.811714238 21.1290997,-0.147519891 20.8008417,0.0195678893 C18.8497008,1.02728252 18.2174916,4.19586791 17.5928339,5.78230735 C16.6814519,8.09792215 15.9059985,10.4650587 15.586708,12.8742355 C15.5060005,13.4828357 15.4621069,14.0912571 15.4519594,14.698605 C15.3856471,14.5361685 15.3233465,14.3724797 15.2544383,14.2105799 C14.1283081,11.5693765 12.6085516,8.99221745 10.7131037,6.61542062 C10.2465573,6.03061339 4.38015546,0.260181448 3.92092468,1.14338527 C3.96623419,1.27165287 4.06110098,1.3780953 4.20576103,1.46271256 C4.21425657,1.47237288 4.21449255,1.46700603 4.20953683,1.45269445 C4.55407791,2.00923629 5.53366011,2.868826 5.83879135,3.35649333 C6.60669318,4.58371192 7.20350441,5.88606636 7.8099911,7.1635544 C9.09140073,9.86325642 10.2800675,12.5901505 11.4323922,15.3227691 C11.7007094,15.959277 11.9803541,16.5922069 12.2656624,17.223169 C9.32455593,12.9810357 5.40103539,9.12978758 -1.42108547e-14,6.92508758 C1.84471069,7.86356991 3.05414428,9.62926197 4.29991986,10.9811703 C5.80244935,12.6117967 7.38497844,14.198594 8.89033977,15.8274315 C10.6659063,17.7489409 12.7550995,19.7724205 14.4629377,21.8987645 C16.1172069,25.3718289 17.7247506,28.8486501 18.7170761,32.499536 C18.3104704,31.2381485 18.6852179,29.4949972 18.6156017,28.1711754 C18.5603807,27.1174848 18.4371955,26.0723811 18.2684648,25.0292453 C18.4770773,25.4997387 18.6568994,25.97059 18.738315,26.4085245 C18.663979,25.6739823 18.5783157,24.9440914 18.4862808,24.2179572 C18.7225038,23.5381568 18.9544791,22.9037957 19.1111745,22.3812439 C19.9142384,19.7006836 20.8704579,17.0662782 22.1726344,14.4986006 C23.3775842,12.1234138 24.7597603,9.77846027 26.2658296,7.50506465 C26.968363,6.44511273 27.6805719,5.38909649 28.388297,4.33129131 C28.8515396,3.63878938 29.2925993,2.52999917 29.9375519,1.86647821 C25.7686049,5.67801166 21.213819,9.51709491 18.5688763,14.0905415" id="Fill-27"></path>
                                </g>
                                <g id="Top-Leaves" stroke-width="1" transform="translate(307.293769, 0.000000)" fill="#F2F2F2">
                                    <path d="M84.7094908,54.8467021 C84.804832,50.6861383 83.1003068,46.8516576 81.2135116,43.2326962 C77.54047,36.1874588 75.7033484,31.9724143 76.2970279,23.6052184 C76.6463454,18.6843282 77.0637638,13.4850255 74.5520427,9.01640536 C72.7233335,5.76238459 68.8872504,2.28122732 64.8364493,2.86969913 C58.4241496,4.33026293 54.8444463,10.4401146 53.4720131,16.5067021 C51.7710932,24.0258416 53.7187786,29.6357525 59.3967905,34.4536902 C62.5963306,37.167711 64.4010042,39.9634528 65.2734967,44.0967763 C65.9717312,47.402073 65.7734374,51.1924885 66.9676065,54.3711976 C68.7530516,59.1230374 71.9766273,62.0249365 76.8254107,62.9074439 C75.0756184,53.4886902 72.6175769,43.7566724 68.6761377,35.0245359 C68.3224136,34.1604558 65.7798469,30.466984 66.8378142,29.5340018 C68.0031407,28.5068801 69.9263899,34.4124291 69.9111674,34.3755745 C71.0284225,36.9998623 71.971019,39.709076 72.8771614,42.4295063 C72.8723543,42.4303074 72.8671466,42.4299068 72.8619389,42.430708 C73.7973246,45.2240463 74.7086748,48.0462273 75.5791644,50.8868356 C75.9172653,52.0786012 76.2337341,53.2771769 76.5149507,54.4917763 C76.927562,56.2740166 76.9764344,60.9677703 78.146568,62.361435 C78.3969389,62.6594766 78.6517163,62.8633787 78.9084967,62.9967763 C79.3771911,64.9620879 79.8146392,66.931806 80.1980071,68.90553 C81.1990902,74.0603668 81.7779478,79.3478 81.1289863,84.5895656 C80.9395056,86.1194321 78.993022,91.4401146 79.6379774,92.798527 C80.816924,95.2830077 81.4799062,91.4517318 81.7314789,90.3120433 C83.8117608,80.87326 83.0598469,72.0117318 80.7900843,62.7708416 C82.8767757,61.3335122 84.6706332,56.5323994 84.7094908,54.8467021" id="Leaf" transform="translate(68.795824, 48.212403) rotate(-18.000000) translate(-68.795824, -48.212403) "></path>
                                    <path d="M46.4121709,40.3234384 C43.3670552,40.7688669 40.4926036,44.6176547 39.0743022,47.1838204 C37.3192604,50.3591682 36.09525,53.9822478 35.1731133,57.4703629 C33.6538816,63.2162524 33.44858,69.5936646 33.4297702,75.4784338 C33.4274763,76.1875726 33.2795216,84.8497059 34.2922663,84.7076018 C35.2956061,84.5668796 34.6602034,75.5756266 34.7457649,73.7137631 C34.9278983,69.740375 34.6556157,65.8218018 35.5876161,61.8988527 C36.5524188,57.8367935 38.3214533,54.0087339 40.556832,50.5001208 C40.8437955,50.0498557 41.4509835,48.3756986 42.140751,48.7623969 C42.8153789,49.1405735 40.946561,51.3707101 40.6811599,51.8041623 C39.585377,53.5941676 38.6338787,55.489657 37.8459335,57.4369673 C36.3695972,61.0853814 35.6025262,64.9033071 35.6286764,68.8345476 C37.9461757,69.1903837 39.9652423,67.8333698 40.7426357,65.5721408 C41.4142816,63.6176908 41.4798863,61.344255 42.2428283,59.4962104 C42.7683545,58.2234917 43.6042416,57.1426252 44.6263912,56.2287367 C47.3228383,53.8182637 50.1378786,53.2153 50.9416515,49.2147348 C51.5717783,46.0785405 50.7893384,39.6861578 46.4121709,40.3234384" id="Leaf" transform="translate(42.276964, 62.494215) scale(-1, 1) rotate(58.000000) translate(-42.276964, -62.494215) "></path>
                                    <path d="M0.94210156,32.0474777 L1.82076576e-13,32.0474777 C0.0660007613,30.8518665 0.151965976,29.6582004 0.353993795,28.4759804 C1.11131724,24.0445521 3.47929214,17.5359428 8.67280869,16.8166747 C8.86440575,16.7898684 9.56919452,16.7853666 10.4229346,16.8348866 C10.8275546,16.611228 11.280795,16.4759688 11.7583455,16.4448653 C16.1801173,16.1223712 21.1181711,19.6513892 23.2510791,23.3238515 C24.9705082,26.2848216 24.6808464,30.1729621 23.6188218,33.3187114 C22.9076465,35.4247449 21.3555042,38.4274591 18.7670897,38.4567209 C15.5286873,38.4933494 15.3725254,34.5337937 15.3098958,32.2190395 C15.2266644,29.1416359 14.8335814,26.4608019 12.3823751,24.3631582 C11.8110862,23.874506 11.1866446,23.4445822 10.6095872,22.9626828 C9.70599071,22.2084232 8.70741977,21.4361564 8.59101941,20.1883336 C8.43032509,18.4667965 9.41262058,18.1569894 10.9124342,18.4768233 C11.1681029,18.5312544 13.7435383,19.6745122 13.3621983,18.770874 C13.245798,18.4948306 12.8205761,18.2760831 12.2838983,18.1121759 C10.8951286,17.9627973 9.23894711,17.7894772 8.76263269,17.8930191 C3.62412304,19.0082428 1.62347886,26.0497038 1.09215754,30.5234902 C1.03200306,31.0300723 0.983923331,31.5383878 0.942101523,32.0474777 Z" id="Leaf-Me-Alone!" transform="translate(12.239101, 27.440653) scale(-1, 1) translate(-12.239101, -27.440653) "></path>
                                </g>
                            </g>
                            <g id="Group-2" transform="translate(60.089021, 115.600000)">
                                <g id="Group" transform="translate(0.000000, 25.800000)">
                                    <g id="Head/Front/Short-2" transform="translate(33.300000, 2.600000)">
                                        <g id="Head" stroke-width="1" transform="translate(24.436202, 13.896778)" fill="#B28B67">
                                            <path d="M3.73886281,15.4613434 C1.6536812,13.0366914 0.242386665,10.0652469 0.47821481,6.73565811 C1.15770136,-2.85781444 14.63843,-0.747372708 17.2607109,4.09458841 C19.8829917,8.93654953 19.5713966,21.2185855 16.1823322,22.083979 C14.8307784,22.4290966 11.9515674,21.5836969 9.02120192,19.8339792 L10.8605341,32.7246715 L0,32.7246715 L3.73886281,15.4613434 Z"></path>
                                        </g>
                                        <path d="M27.3405522,31.517678 C25.9774483,25.5102078 22.0941877,21.4151166 22.6872547,18.7300343 C23.0826327,16.9399794 24.1364337,15.8268072 25.8486576,15.3905175 C26.7342037,11.8416245 29.5902712,10.332142 34.4168603,10.8620699 C41.656744,11.6569619 46.075566,14.6354408 44.1672952,21.1893942 C42.4131456,21.1893942 40.2955121,20.5609499 37.367265,21.6376773 C36.4381441,21.9793186 35.7736095,23.0387782 35.3736614,24.816056 L34.0503981,24.816056 C32.7661154,22.7069131 31.4998044,21.9318606 30.2514651,22.4908986 C29.0031259,23.0499366 28.719358,24.4078421 29.4001617,26.564615 L28.7483208,31.517678 L27.3405522,31.517678 Z" id="Hair" fill="#191847"></path>
                                    </g>
                                    <g id="Bottom/Sitting/Sweat-Pants" transform="translate(0.000000, 87.133958)">
                                        <g id="Objects/Seat/Ball" transform="translate(4.506677, 18.752782)" fill="#C5CFD6">
                                            <ellipse id="Ballsy-Ball" cx="52.4648224" cy="25.7781899" rx="34.8257873" ry="32.3879822"></ellipse>
                                        </g>
                                        <path d="M122.360439,72.6267779 C116.586131,59.9649426 112.41021,48.9395283 110.734011,43.1224937 C107.863951,33.1623181 105.680581,24.3979452 105.128744,21.1249091 C103.812815,13.3199347 115.251617,12.8654355 116.763586,16.7443718 C119.052012,22.6152958 123.047085,41.9047023 127.84747,71.0406328 L122.360439,72.6267779 Z M55.381803,32.8903887 C60.6797241,30.8156548 79.2327619,24.3227511 88.180892,22.4860275 C90.7522257,21.9582268 93.2444376,21.4678404 95.587554,21.0246674 C102.552125,19.7074005 106.160427,32.1554077 99.452695,33.1118565 C82.7477925,35.4937919 59.0657722,37.9535273 57.0391088,38.2295659 C54.1986535,38.6164458 52.0522248,34.1942943 55.381803,32.8903887 Z" id="Skin" fill="#997659"></path>
                                        <path d="M99.8621483,17.5991543 L71.2054896,3.14632273 L71.2054896,0 L74.6135221,0 C102.337555,6.99912855 116.504514,11.4845919 117.114398,13.4563901 C117.120959,13.4776043 117.126975,13.4988463 117.132446,13.5201162 C117.146398,13.5382593 117.160114,13.5565122 117.173591,13.5748746 C122.667908,21.0611715 125.958433,57.6098701 127.038442,60.3465128 L116.510086,61.9026549 C112.48271,47.1066735 99.5975519,36.799254 99.9398284,19.0782813 C99.8474062,18.5584565 99.8240535,18.065491 99.8621483,17.5991543 Z" id="Leg-Back" fill="#191847"></path>
                                        <path d="M73.5864453,26.1826681 C70.9644273,25.6626572 68.5498306,25.1985554 66.4837115,24.8395148 C53.1379032,22.5203422 49.2461519,15.4425812 51.5471631,-6.21233086e-15 L76.1365881,-4.97379915e-14 C80.1533127,1.14316872 101.027988,9.81611585 111.858697,14.4290767 C119.027015,17.4821705 116.767327,28.4883691 112.707905,31.352634 C112.685862,31.5283511 112.612805,31.6477107 112.48271,31.7011313 C90.6458803,40.6679314 73.3709437,35.9630743 67.6001484,37.466347 L64.9308978,29.1241492 L73.5864453,26.1826681 Z" id="Leg-Front" fill="#191847"></path>
                                        <g id="Accessories/Shoe/Flat-Sneaker" transform="translate(64.877798, 41.672173) rotate(64.000000) translate(-64.877798, -41.672173) translate(51.132434, 32.742277)" fill="#E4E4E4">
                                            <path d="M1.24615418,11.3438206 C0.715829832,12.7419689 0.450667656,13.7836912 0.450667656,14.4689874 C0.450667656,15.2816702 0.586054621,16.4675765 0.856828552,18.0267062 C1.7995976,18.0267062 10.2724218,18.0267062 26.275301,18.0267062 C26.935837,15.8429994 26.5545373,14.6640863 25.131402,14.489967 C23.7082666,14.3158478 22.5260439,14.158632 21.5847338,14.0183198 L9.72342119,8.73048744 C9.52135016,8.64040317 9.2845115,8.73118637 9.19442723,8.9332574 C9.19288614,8.93671427 9.19139412,8.94019281 9.18995161,8.94369198 L8.41090649,10.8334623 C7.09345537,11.4481537 6.02288955,11.7554994 5.19920904,11.7554994 C4.51241538,11.7554994 3.55707631,11.470842 2.33319184,10.9015274 L2.33319683,10.9015167 C1.93199021,10.7148873 1.45545497,10.8888365 1.26882559,11.2900431 C1.26061787,11.3076877 1.25305572,11.3256254 1.24615418,11.3438206 Z" id="shoe"></path>
                                        </g>
                                        <g id="Accessories/Shoe/Flat-Sneaker" transform="translate(118.525593, 58.937315)" fill="#E4E4E4">
                                            <path d="M1.24615418,11.3438206 C0.715829832,12.7419689 0.450667656,13.7836912 0.450667656,14.4689874 C0.450667656,15.2816702 0.586054621,16.4675765 0.856828552,18.0267062 C1.7995976,18.0267062 10.2724218,18.0267062 26.275301,18.0267062 C26.935837,15.8429994 26.5545373,14.6640863 25.131402,14.489967 C23.7082666,14.3158478 22.5260439,14.158632 21.5847338,14.0183198 L9.72342119,8.73048744 C9.52135016,8.64040317 9.2845115,8.73118637 9.19442723,8.9332574 C9.19288614,8.93671427 9.19139412,8.94019281 9.18995161,8.94369198 L8.41090649,10.8334623 C7.09345537,11.4481537 6.02288955,11.7554994 5.19920904,11.7554994 C4.51241538,11.7554994 3.55707631,11.470842 2.33319184,10.9015274 L2.33319683,10.9015167 C1.93199021,10.7148873 1.45545497,10.8888365 1.26882559,11.2900431 C1.26061787,11.3076877 1.25305572,11.3256254 1.24615418,11.3438206 Z" id="shoe"></path>
                                        </g>
                                    </g>
                                    <g id="Body/Pointing-Forward" transform="translate(9.000000, 39.471194)">
                                        <path d="M70.9531723,19.1580866 L86.4776274,10.6287865 C89.0592492,7.55350434 91.6028657,5.16511684 94.1084771,3.46362404 C94.8741113,3.14298369 96.2130116,2.94890924 94.9608854,5.17826664 C93.7087592,7.40762404 92.4916599,9.8090625 93.1295689,10.4958793 C93.7674779,11.182696 95.3581611,10.2232433 96.1191769,11.3643952 C96.6265207,12.1251631 93.9089642,13.3269623 87.9665074,14.9697926 L76.6860988,25.3305504 L70.9531723,19.1580866 Z M95.2673504,26.3544919 L102.08658,22.596641 C103.043414,18.9443777 104.187193,17.1068006 105.517917,17.0839096 C106.540189,16.6067675 104.759909,21.2217432 106.697814,20.8215333 C108.635719,20.4213235 113.365591,16.8925345 114.180572,17.609012 C115.386283,18.6689943 114.311197,21.9237541 113.04449,23.5428228 C110.677016,26.5688603 108.71685,27.6036737 103.871995,28.9587682 C101.338854,29.6672816 98.6000815,31.0874356 95.6556762,33.2192303 L95.2673504,26.3544919 Z" id="Skin" fill="#B28B67"></path>
                                        <path d="M63.8962512,15.5965819 C69.2759823,16.390305 76.6180754,16.3867541 85.0305195,12.7312087 L86.9682765,19.9200916 C80.8660507,24.3327418 72.7715196,27.4703216 66.3198099,26.2613237 C61.235507,25.3085667 59.6068329,18.6983521 63.8962512,15.5965819 Z" id="Sleeve" fill="#DDE3E9" transform="translate(74.199958, 19.626841) rotate(-9.000000) translate(-74.199958, -19.626841) "></path>
                                        <path d="M70.7144349,28.1587496 C76.4871847,29.6029431 86.1677289,27.8998399 99.7560677,23.0494399 C103.126537,30.0441663 104.684621,35.0308698 104.430318,38.0095504 C92.7735272,44.1176687 82.7826507,46.8409671 74.5515028,47.0207469 C74.8130741,51.9200924 74.2185965,56.5819325 72.2215669,60.8416086 C68.1160126,69.5987801 44.0757115,61.4886628 35.9926256,63.084932 C30.9307595,46.5944202 40.7180307,39.8927429 40.7259057,29.3411522 C40.7345297,17.7860361 49.9837866,-1.42108547e-13 51.3446295,-1.42108547e-13 L63.7547669,-2.66782066e-14 C64.4395069,8.8247944 67.8859934,18.5504824 70.7144349,28.1587496 Z" id="Clothes" fill="#F2F2F2"></path>
                                    </g>
                                    <path d="M101.582419,2.81877795 L132.8281,2.82457813 C134.597648,2.82485066 136.032082,4.25928405 136.032354,6.02883159 L136.041424,52.0201853 C136.041697,53.7901186 134.607103,55.2251543 132.83717,55.2254273 C132.836841,55.2254273 132.836512,55.2254273 132.836182,55.2254273 L101.590501,55.2186394 C99.8209537,55.2183669 98.38652,53.7839335 98.3862471,52.0143859 L98.3771779,6.02303227 C98.376905,4.25309897 99.8114981,2.81806324 101.581431,2.81779025 C101.581761,2.8177902 101.58209,2.8177902 101.582419,2.81779025 Z" id="Rectangle" fill="#FF7D6E" fill-rule="nonzero" opacity="0.7" transform="translate(117.209301, 29.021609) rotate(-6.000000) translate(-117.209301, -29.021609) "></path>
                                </g>
                                <g id="Head/Front/Airy" transform="translate(196.090504, 23.400000) scale(-1, 1) translate(-196.090504, -23.400000) translate(165.445104, 0.000000)">
                                    <g id="Head" stroke-width="1" transform="translate(24.436202, 13.896778)" fill="#915B3C">
                                        <path d="M3.73886281,15.4613434 C1.6536812,13.0366914 0.242386665,10.0652469 0.47821481,6.73565811 C1.15770136,-2.85781444 14.63843,-0.747372708 17.2607109,4.09458841 C19.8829917,8.93654953 19.5713966,21.2185855 16.1823322,22.083979 C14.8307784,22.4290966 11.9515674,21.5836969 9.02120192,19.8339792 L10.8605341,32.7246715 L0,32.7246715 L3.73886281,15.4613434 Z"></path>
                                    </g>
                                    <path d="M35.5066836,12.4108347 C34.0752967,12.1783017 30.2212242,12.0184288 29.5104644,12.0185321 C29.0562553,12.0185321 28.564031,12.1213296 28.2950163,11.7081785 C28.074715,11.3698549 28.1554194,10.7976566 28.0896718,10.4050443 C28.0133298,9.94895765 27.9048929,9.49875401 27.7952097,9.04968567 C27.4830903,7.77183804 27.01112,6.55612306 26.3507355,5.41471954 C25.1116058,3.27331072 23.2963276,1.59593574 21.0046128,0.619875237 C18.4739007,-0.457847479 15.6101919,-0.704623481 12.8880535,-0.486023911 C9.97500814,-0.252149206 7.33804042,0.700482538 4.58765027,1.59696784 C1.96667803,2.4512401 -0.778518791,2.78749949 -3.51976867,2.37032317 C-6.28168803,1.95005053 -8.36857771,0.467123885 -10.6982039,-0.940355974 C-13.0830871,-2.38127599 -15.8085493,-3.32368991 -18.6279069,-3.10705134 C-21.2596813,-2.90475901 -23.6852803,-1.82827481 -25.8614953,-0.390244685 C-27.8975942,0.955205739 -29.577638,2.57395723 -30.5261487,4.85222301 C-31.5465351,7.30295332 -31.5456003,9.99302848 -29.8676338,12.1588982 C-27.4354913,15.2983513 -22.920302,16.1102041 -19.1638591,16.0294936 C-16.9910716,15.9829457 -14.8571303,15.5900238 -12.805763,14.875292 C-10.0700181,13.922041 -7.70590818,12.3063858 -5.14652889,10.9955108 C-3.9454144,10.380377 -2.70389576,9.87516224 -1.40254991,9.51124246 C-0.139738601,9.15795335 1.1040651,8.99591307 2.24742971,9.75161942 C3.4569574,10.551087 4.54080639,11.3364147 5.92451854,11.8368818 C7.25193493,12.3170165 8.65797842,12.5855698 10.0722274,12.5747328 C12.8238639,12.5536778 15.5363427,11.7043597 18.2088329,11.1354641 C20.3881639,10.6716367 22.7199713,10.2093574 24.9417838,10.6552262 C25.8688979,10.8413145 27.2231119,11.2254635 27.5579782,12.1799531 C21.9220673,13.1918276 19.7085693,20.0966015 21.2974182,25.1653662 C22.1549416,27.9011635 27.3096329,31.0992817 29.3138447,29.6610317 C30.5835705,28.749859 29.8127164,27.5536542 29.3138447,26.7639916 C28.3584788,25.2517533 28.0316103,23.3092308 29.7994215,22.2563818 C31.3242885,21.3483369 32.9275811,23.5047025 32.9579101,23.5023287 C33.3770123,23.469611 36.9984188,21.4407321 39.493502,18.4800833 C41.9549108,18.6246262 42.3283422,17.0168402 41.740606,15.7019734 C41.1528697,14.3871066 37.4844094,12.732335 35.5066836,12.4108347 Z" id="hair" fill="#191847"></path>
                                </g>
                                <g id="Bottom/Standing/Skinny-Jeans" transform="translate(199.695846, 138.600000) scale(-1, 1) translate(-199.695846, -138.600000) translate(132.195846, 84.800000)">
                                    <polygon id="Leg" fill="#191847" points="57.6854599 9.9475983e-14 74.0243988 57.3370529 85.9454574 99.5975519 94.6402077 99.5975519 81.9723789 9.9475983e-14"></polygon>
                                    <path d="M53.3159405,0 C52.9380225,29.552182 51.6493289,45.6707451 51.2525304,48.3556893 C50.8557318,51.0406335 44.8559306,68.1212544 33.2531265,99.5975519 L42.2602989,99.5975519 C57.0315562,69.4014227 65.2772499,52.3208018 66.9973801,48.3556893 C68.7175103,44.3905768 74.0259998,28.2720137 82.0215134,0 L53.3159405,0 Z" id="Leg" fill="#191847"></path>
                                    <g id="Accessories/Shoe/Flat-Sneaker" transform="translate(32.448071, 89.682864)" fill="#E4E4E4">
                                        <path d="M1.24615418,11.3438206 C0.715829832,12.7419689 0.450667656,13.7836912 0.450667656,14.4689874 C0.450667656,15.2816702 0.586054621,16.4675765 0.856828552,18.0267062 C1.7995976,18.0267062 10.2724218,18.0267062 26.275301,18.0267062 C26.935837,15.8429994 26.5545373,14.6640863 25.131402,14.489967 C23.7082666,14.3158478 22.5260439,14.158632 21.5847338,14.0183198 L9.72342119,8.73048744 C9.52135016,8.64040317 9.2845115,8.73118637 9.19442723,8.9332574 C9.19288614,8.93671427 9.19139412,8.94019281 9.18995161,8.94369198 L8.41090649,10.8334623 C7.09345537,11.4481537 6.02288955,11.7554994 5.19920904,11.7554994 C4.51241538,11.7554994 3.55707631,11.470842 2.33319184,10.9015274 L2.33319683,10.9015167 C1.93199021,10.7148873 1.45545497,10.8888365 1.26882559,11.2900431 C1.26061787,11.3076877 1.25305572,11.3256254 1.24615418,11.3438206 Z" id="shoe"></path>
                                    </g>
                                    <g id="Accessories/Shoe/Flat-Sneaker" transform="translate(84.725519, 89.682864)" fill="#E4E4E4">
                                        <path d="M1.24615418,11.3438206 C0.715829832,12.7419689 0.450667656,13.7836912 0.450667656,14.4689874 C0.450667656,15.2816702 0.586054621,16.4675765 0.856828552,18.0267062 C1.7995976,18.0267062 10.2724218,18.0267062 26.275301,18.0267062 C26.935837,15.8429994 26.5545373,14.6640863 25.131402,14.489967 C23.7082666,14.3158478 22.5260439,14.158632 21.5847338,14.0183198 L9.72342119,8.73048744 C9.52135016,8.64040317 9.2845115,8.73118637 9.19442723,8.9332574 C9.19288614,8.93671427 9.19139412,8.94019281 9.18995161,8.94369198 L8.41090649,10.8334623 C7.09345537,11.4481537 6.02288955,11.7554994 5.19920904,11.7554994 C4.51241538,11.7554994 3.55707631,11.470842 2.33319184,10.9015274 L2.33319683,10.9015167 C1.93199021,10.7148873 1.45545497,10.8888365 1.26882559,11.2900431 C1.26061787,11.3076877 1.25305572,11.3256254 1.24615418,11.3438206 Z" id="shoe"></path>
                                    </g>
                                </g>
                                <g id="Body/Trench-Coat" transform="translate(199.094955, 79.200000) scale(-1, 1) rotate(8.000000) translate(-199.094955, -79.200000) translate(141.409496, 37.200000)">
                                    <path d="M88.4210609,40.4894033 L101.922466,51.9714733 C105.709701,53.2870871 108.844045,54.81327 111.325499,56.5500219 C111.898287,57.1521334 112.558725,58.3364674 110.035213,57.9627778 C107.511702,57.5890881 104.840593,57.3098697 104.430001,58.1534064 C104.01941,58.9969431 105.482391,60.1427856 104.693082,61.2644313 C104.166876,62.0121952 102.074516,59.8978818 98.416002,54.9214913 L84.7310494,48.070319 L88.4210609,40.4894033 Z M24.3199241,31.6049439 L32.0781222,33.5833352 C21.6928075,51.0975256 16.1391064,60.3535761 15.4170188,61.3514865 C13.7923217,63.596785 14.9723471,67.9303351 15.3732561,70.2008203 C12.0832892,70.7891087 13.6215593,65.9478261 9.45481682,66.7564735 C5.65160746,67.4945692 2.34295773,69.7279659 -0.988651622,66.306137 C-1.39825341,65.8854433 -1.64832087,64.6246349 -0.147533838,64.0636143 C3.59147396,62.6659072 9.14835845,59.9727978 10.0845726,58.8630237 C11.3612679,57.3496485 16.106385,48.2636219 24.3199241,31.6049439 Z" id="Skin" fill="#915B3C" transform="translate(55.275749, 50.927748) rotate(-4.000000) translate(-55.275749, -50.927748) "></path>
                                    <path d="M90.9380329,39.3379791 C92.7736473,39.2057847 94.770346,39.5108267 96.9110811,40.2343791 C97.9644722,40.5904175 98.5306891,41.735659 98.1757618,42.7923477 C97.969623,43.4060638 97.4981016,43.8549323 96.9326241,44.0536671 C97.3422408,44.3534355 97.7554864,44.6515491 98.1724047,44.9479781 L94.5731881,52.3186204 C79.4274986,44.7433233 65.1919996,39.0319617 58.7051979,26.5257553 C56.5280596,22.3283492 57.264959,8.07069705 57.0571521,2.88382309 L61.8406591,0.915923957 C68.5086819,14.7423374 77.5328737,28.0071029 90.9380329,39.3379791 Z" id="Back-Arm" fill="#DDE3E9"></path>
                                    <path d="M40.25381,51.1072803 C54.315059,52.6568215 65.3828043,52.6568215 73.4570461,51.1072803 C74.4573905,50.9153026 74.4134606,46.5895212 73.9495521,45.4081095 C66.7252895,27.0104552 61.9731119,13.5425095 61.9731119,0.76391325 C60.6475506,1.45848774 58.3276935,1.56257841 55.0135404,1.07618526 C46.1068042,14.2449396 42.0126948,29.3545785 40.25381,51.1072803 Z" id="Shirt" fill="#FF7D6E"></path>
                                    <path d="M37.6126994,53.365335 C37.1385015,52.9648516 36.8841005,52.3300055 36.9992849,51.6747173 L37.3071188,49.9234394 C37.4575529,49.0676144 38.1886589,48.4596574 39.0241682,48.4334342 C39.1699136,47.7759334 39.2958693,47.1227483 39.4003117,46.474237 C40.303247,40.8676672 38.7605345,35.3702436 38.8329858,29.9717459 C31.6409251,36.127175 25.1890812,46.7558823 19.477454,61.8578678 L11.0300638,59.3643851 C11.3523795,58.1631975 11.6862419,56.9767631 12.031651,55.8050818 C11.0566506,55.2494497 9.91735957,52.7028361 10.7373031,52.276687 C11.5841235,51.8365691 12.4812299,51.5267995 13.4259795,51.3444753 C21.1714415,27.9424449 33.8376296,10.8276197 51.4245438,-5.70210545e-13 L53.8404942,-5.65769653e-13 L56.5111721,-1.0658141e-14 C55.0135404,19.8672046 75.6993659,63.2414864 68.5167226,100.284684 C55.2406867,103.258737 36.2874279,94.0054664 17.8381686,101.39822 C18.5234559,86.5068231 32.2275767,69.017408 37.6127005,53.3653321 Z" id="Coat-Front" fill="#F2F2F2"></path>
                                    <polygon id="Shade-Lapel" fill-opacity="0.1" fill="#000000" points="53.2717843 0.448664688 50.9642771 7.56692968 55.6110843 12.9031673 51.4115416 17.0965952 61.5714456 34.547181 49.1470335 17.1314589 53.2717843 12.9031673 49.1470335 8.18743884"></polygon>
                                    <path d="M58.5916568,41.2771513 C57.6035873,41.2771513 56.8025986,40.4736552 56.8025986,39.4824926 C56.8025986,38.4913299 57.6035873,37.6878338 58.5916568,37.6878338 C59.5797264,37.6878338 60.380715,38.4913299 60.380715,39.4824926 C60.380715,40.4736552 59.5797264,41.2771513 58.5916568,41.2771513 Z M60.8279796,51.5964392 C59.83991,51.5964392 59.0389214,50.7929431 59.0389214,49.8017804 C59.0389214,48.8106178 59.83991,48.0071217 60.8279796,48.0071217 C61.8160492,48.0071217 62.6170378,48.8106178 62.6170378,49.8017804 C62.6170378,50.7929431 61.8160492,51.5964392 60.8279796,51.5964392 Z M61.2752442,61.915727 C60.2871746,61.915727 59.4861859,61.1122309 59.4861859,60.1210682 C59.4861859,59.1299056 60.2871746,58.3264095 61.2752442,58.3264095 C62.2633137,58.3264095 63.0643024,59.1299056 63.0643024,60.1210682 C63.0643024,61.1122309 62.2633137,61.915727 61.2752442,61.915727 Z" id="Buttons" fill-opacity="0.4" fill="#000000"></path>
                                </g>
                            </g>
                        </g>
                    </g>
                </g>
            </g>
        </g>
    </g>
</svg>