<?xml version="1.0" encoding="UTF-8"?>
<svg width="140px" height="26px" viewBox="0 0 140 26" version="1.1" xmlns="http://www.w3.org/2000/svg" xmlns:xlink="http://www.w3.org/1999/xlink">
    <!-- Generator: Sketch 53.2 (72643) - https://sketchapp.com -->
    <title>Artboard Copy 2</title>
    <desc>Created with Sketch.</desc>
    <g id="Artboard-Copy-2" stroke="none" stroke-width="1" fill="none" fill-rule="evenodd">
        <path d="M4.00797246,15.990456 L6.34172858,15.990456 C9.10672224,15.990456 11.3643776,14.3870626 11.3643776,10.7730647 C11.3643776,7.15906681 9.10672224,5.53022269 6.34172858,5.53022269 L4.00797246,5.53022269 L4.00797246,15.990456 Z M6.49393006,19.7826087 L0,19.7826087 L0,1.73806999 L6.51929698,1.73806999 C11.9224497,1.73806999 15.5499185,5.19936373 15.5499185,10.7730647 C15.5499185,16.3467656 11.9224497,19.7826087 6.49393006,19.7826087 Z M24.4029716,7.13361612 L24.4029716,10.9512195 C23.971734,10.8494168 23.5658634,10.8239661 23.1853597,10.8239661 C21.6379779,10.8239661 20.2427976,11.7401909 20.2427976,14.2598091 L20.2427976,19.7826087 L16.3870266,19.7826087 L16.3870266,7.13361612 L20.115963,7.13361612 L20.115963,8.8388123 C20.7755028,7.4135737 22.3736184,7.00636267 23.388295,7.00636267 C23.7687987,7.00636267 24.1493024,7.05726405 24.4029716,7.13361612 Z M27.7260373,11.9437964 L32.7740533,11.9437964 C32.7233194,10.9766702 32.0637797,9.80593849 30.2373618,9.80593849 C28.6138793,9.80593849 27.8021381,11.0021209 27.7260373,11.9437964 Z M33.0530893,15.2269353 L36.2746874,16.1431601 C35.6658815,18.3319194 33.6618953,20.164369 30.4656641,20.164369 C26.9903968,20.164369 23.8956333,17.6702015 23.8956333,13.4199364 C23.8956333,9.34782609 26.9142961,6.75185578 30.186628,6.75185578 C34.0931328,6.75185578 36.5029897,9.16967126 36.5029897,13.2417815 C36.5029897,13.776246 36.4522558,14.3616119 36.4268889,14.4379639 L27.6499366,14.4379639 C27.7260373,15.8632025 29.01975,16.8812301 30.5163979,16.8812301 C31.9115782,16.8812301 32.6979525,16.2195122 33.0530893,15.2269353 Z M36.4522558,16.2958643 C36.4522558,14.0562036 38.1011053,12.7836691 40.1811922,12.4782609 L43.1491212,12.0201485 C43.8340279,11.9183457 44.0623301,11.5874867 44.0623301,11.154825 C44.0623301,10.416755 43.4281573,9.7804878 42.2105454,9.7804878 C40.8660989,9.7804878 40.1304584,10.6967126 40.0543577,11.6383881 L36.705925,10.9512195 C36.8581265,9.14422057 38.5323428,6.75185578 42.2359123,6.75185578 C46.3199855,6.75185578 47.8166335,9.04241782 47.8166335,11.6383881 L47.8166335,17.8229056 C47.8166335,18.8154825 47.943468,19.6553552 47.9688349,19.7826087 L44.4935677,19.7826087 C44.4682008,19.6808059 44.3667331,19.2226935 44.3667331,18.3573701 C43.7071933,19.426299 42.4895814,20.1389183 40.8153651,20.1389183 C38.0503714,20.1389183 36.4522558,18.3064687 36.4522558,16.2958643 Z M41.7539409,17.3393425 C42.8954521,17.3393425 44.0623301,16.7794274 44.0623301,14.8197243 L44.0623301,14.2598091 L41.6778402,14.6415695 C40.8660989,14.7688229 40.257293,15.1505832 40.257293,16.0413574 C40.257293,16.7030753 40.6885305,17.3393425 41.7539409,17.3393425 Z M53.1436855,19.7826087 L49.2879145,19.7826087 L49.2879145,7.13361612 L52.9661171,7.13361612 L52.9661171,8.58430541 C53.6002899,7.46447508 55.2237724,6.75185578 56.5935858,6.75185578 C58.3946367,6.75185578 59.6883493,7.48992577 60.3225222,8.73700954 C61.3118319,7.31177094 62.5294437,6.75185578 64.229027,6.75185578 C66.613517,6.75185578 68.8965392,8.15164369 68.8965392,11.5874867 L68.8965392,19.7826087 L65.1676028,19.7826087 L65.1676028,12.4528102 C65.1676028,11.2566278 64.53343,10.3149523 63.1636166,10.3149523 C61.7938032,10.3149523 61.0581627,11.3584305 61.0581627,12.4782609 L61.0581627,19.7826087 L57.2531256,19.7826087 L57.2531256,12.4528102 C57.2531256,11.2566278 56.6189527,10.3149523 55.2237724,10.3149523 C53.879326,10.3149523 53.1436855,11.3584305 53.1436855,12.5037116 L53.1436855,19.7826087 Z M77.6734916,14.4379639 L81.9605001,1.73806999 L86.2221417,1.73806999 L79.6521109,19.7826087 L75.5173039,19.7826087 L68.9219061,1.73806999 L73.3357492,1.73806999 L77.6734916,14.4379639 Z M90.2554811,19.7826087 L86.3997101,19.7826087 L86.3997101,7.13361612 L90.2554811,7.13361612 L90.2554811,19.7826087 Z M86.0699402,3.26511135 C86.0699402,2.01802757 87.0846168,1 88.3022287,1 C89.5705744,1 90.585251,2.01802757 90.585251,3.26511135 C90.585251,4.51219512 89.5705744,5.53022269 88.3022287,5.53022269 C87.0846168,5.53022269 86.0699402,4.51219512 86.0699402,3.26511135 Z M95.7093676,19.7826087 L91.8535967,19.7826087 L91.8535967,1.35630965 L95.7093676,1.35630965 L95.7093676,19.7826087 Z M101.188621,19.7826087 L97.3328502,19.7826087 L97.3328502,1.35630965 L101.188621,1.35630965 L101.188621,19.7826087 Z M101.924262,16.2958643 C101.924262,14.0562036 103.573111,12.7836691 105.653198,12.4782609 L108.621127,12.0201485 C109.306034,11.9183457 109.534336,11.5874867 109.534336,11.154825 C109.534336,10.416755 108.900163,9.7804878 107.682551,9.7804878 C106.338105,9.7804878 105.602464,10.6967126 105.526363,11.6383881 L102.177931,10.9512195 C102.330132,9.14422057 104.004349,6.75185578 107.707918,6.75185578 C111.791991,6.75185578 113.288639,9.04241782 113.288639,11.6383881 L113.288639,17.8229056 C113.288639,18.8154825 113.415474,19.6553552 113.440841,19.7826087 L109.965573,19.7826087 C109.940207,19.6808059 109.838739,19.2226935 109.838739,18.3573701 C109.179199,19.426299 107.961587,20.1389183 106.287371,20.1389183 C103.522377,20.1389183 101.924262,18.3064687 101.924262,16.2958643 Z M107.225947,17.3393425 C108.367458,17.3393425 109.534336,16.7794274 109.534336,14.8197243 L109.534336,14.2598091 L107.149846,14.6415695 C106.338105,14.7688229 105.729299,15.1505832 105.729299,16.0413574 C105.729299,16.7030753 106.160536,17.3393425 107.225947,17.3393425 Z M113.795978,20.495228 L117.195144,19.5281018 C117.448813,20.7497349 118.46349,21.640509 119.909404,21.640509 C121.837289,21.640509 123.029534,20.6988335 123.029534,18.4082715 L123.029534,17.8229056 C122.57293,18.5100742 121.482153,19.2481442 119.655735,19.2481442 C116.307302,19.2481442 113.795978,16.6012725 113.795978,13.0890774 C113.795978,9.75503712 116.205834,6.90455992 119.655735,6.90455992 C121.710455,6.90455992 122.801232,7.82078473 123.156369,8.48250265 L123.156369,7.13361612 L126.834571,7.13361612 L126.834571,18.204666 C126.834571,21.8441145 124.805218,25 120.086972,25 C116.459504,25 114.151114,22.7603393 113.795978,20.495228 Z M120.366008,15.8886532 C121.938757,15.8886532 123.054901,14.8197243 123.054901,13.0890774 C123.054901,11.3584305 121.811922,10.2895016 120.366008,10.2895016 C118.920094,10.2895016 117.651748,11.3584305 117.651748,13.0890774 C117.651748,14.8197243 118.818627,15.8886532 120.366008,15.8886532 Z M131.223048,11.9437964 L136.271064,11.9437964 C136.22033,10.9766702 135.56079,9.80593849 133.734372,9.80593849 C132.11089,9.80593849 131.299148,11.0021209 131.223048,11.9437964 Z M136.5501,15.2269353 L139.771698,16.1431601 C139.162892,18.3319194 137.158906,20.164369 133.962674,20.164369 C130.487407,20.164369 127.392644,17.6702015 127.392644,13.4199364 C127.392644,9.34782609 130.411306,6.75185578 133.683638,6.75185578 C137.590143,6.75185578 140,9.16967126 140,13.2417815 C140,13.776246 139.949266,14.3616119 139.923899,14.4379639 L131.146947,14.4379639 C131.223048,15.8632025 132.51676,16.8812301 134.013408,16.8812301 C135.408589,16.8812301 136.194963,16.2195122 136.5501,15.2269353 Z" id="Logo" fill="#FFFFFF" fill-rule="nonzero"></path>
    </g>
</svg>