<?xml version="1.0" encoding="UTF-8"?>
<svg width="199px" height="36px" viewBox="0 0 199 36" version="1.1" xmlns="http://www.w3.org/2000/svg" xmlns:xlink="http://www.w3.org/1999/xlink">
    <!-- Generator: Sketch 53.2 (72643) - https://sketchapp.com -->
    <title>Gratitude</title>
    <desc>Created with Sketch.</desc>
    <g id="Symbols" stroke="none" stroke-width="1" fill="none" fill-rule="evenodd">
        <g id="Web-Footer-/-Default" transform="translate(-621.000000, -72.000000)" fill="#23535D" fill-rule="nonzero">
            <g id="Gratitude">
                <path d="M654.2749,107.282869 L648.155378,107.282869 L647.677291,103.840637 C646.195219,105.992032 642.992032,108 638.163347,108 C628.74502,108 621,101.067729 621,90.3585657 C621,79.6972112 629.079681,72.6693227 638.641434,72.6693227 C648.346614,72.6693227 652.840637,78.4063745 654.322709,83.1394422 L647.055777,85.6733068 C646.52988,83.5697211 644.282869,79.7450199 638.641434,79.7450199 C634.051793,79.7450199 628.649402,82.8047809 628.649402,90.3585657 C628.649402,97.4342629 633.334661,101.115538 638.832669,101.115538 C644.426295,101.115538 646.768924,97.4820717 647.199203,95.5697211 L637.015936,95.5697211 L637.015936,89.1633466 L654.2749,89.1633466 L654.2749,107.282869 Z M673.021912,83.5219124 L673.021912,90.6932271 C672.209163,90.501992 671.444223,90.4541833 670.727092,90.4541833 C667.810757,90.4541833 665.181275,92.1752988 665.181275,96.9083665 L665.181275,107.282869 L657.914343,107.282869 L657.914343,83.5219124 L664.942231,83.5219124 L664.942231,86.7250996 C666.185259,84.0478088 669.197211,83.2828685 671.109562,83.2828685 C671.826693,83.2828685 672.543825,83.3784861 673.021912,83.5219124 Z M673.936255,100.733068 C673.936255,96.5258964 677.043825,94.1354582 680.964143,93.561753 L686.557769,92.7011952 C687.848606,92.5099602 688.278884,91.8884462 688.278884,91.0756972 C688.278884,89.689243 687.083665,88.4940239 684.788845,88.4940239 C682.25498,88.4940239 680.868526,90.2151394 680.7251,91.9840637 L674.414343,90.6932271 C674.701195,87.2988048 677.856574,82.8047809 684.836653,82.8047809 C692.533865,82.8047809 695.354582,87.1075697 695.354582,91.9840637 L695.354582,103.601594 C695.354582,105.466135 695.593625,107.043825 695.641434,107.282869 L689.091633,107.282869 C689.043825,107.091633 688.85259,106.231076 688.85259,104.605578 C687.609562,106.613546 685.314741,107.952191 682.159363,107.952191 C676.948207,107.952191 673.936255,104.50996 673.936255,100.733068 Z M683.928287,102.693227 C686.079681,102.693227 688.278884,101.641434 688.278884,97.9601594 L688.278884,96.9083665 L683.784861,97.625498 C682.25498,97.8645418 681.10757,98.5816733 681.10757,100.25498 C681.10757,101.498008 681.920319,102.693227 683.928287,102.693227 Z M707.695219,76.5896414 L707.695219,83.5219124 L712.332669,83.5219124 L712.332669,89.8804781 L707.695219,89.8804781 L707.695219,98.7729084 C707.695219,100.733068 708.747012,101.258964 710.324701,101.258964 C711.089641,101.258964 711.806773,101.115538 712.237052,101.01992 L712.237052,107.043825 C711.950199,107.187251 710.75498,107.713147 708.460159,107.713147 C703.535857,107.713147 700.523904,104.796813 700.523904,100.063745 L700.523904,89.8804781 L696.316733,89.8804781 L696.316733,83.5219124 L697.511952,83.5219124 C699.998008,83.5219124 701.193227,81.8486056 701.193227,79.6494024 L701.193227,76.5896414 L707.695219,76.5896414 Z M722.521912,107.282869 L715.25498,107.282869 L715.25498,83.5219124 L722.521912,83.5219124 L722.521912,107.282869 Z M714.633466,76.2549801 C714.633466,73.9123506 716.545817,72 718.840637,72 C721.231076,72 723.143426,73.9123506 723.143426,76.2549801 C723.143426,78.5976096 721.231076,80.5099602 718.840637,80.5099602 C716.545817,80.5099602 714.633466,78.5976096 714.633466,76.2549801 Z M735.340637,76.5896414 L735.340637,83.5219124 L739.978088,83.5219124 L739.978088,89.8804781 L735.340637,89.8804781 L735.340637,98.7729084 C735.340637,100.733068 736.39243,101.258964 737.97012,101.258964 C738.73506,101.258964 739.452191,101.115538 739.88247,101.01992 L739.88247,107.043825 C739.595618,107.187251 738.400398,107.713147 736.105578,107.713147 C731.181275,107.713147 728.169323,104.796813 728.169323,100.063745 L728.169323,89.8804781 L723.962151,89.8804781 L723.962151,83.5219124 L725.157371,83.5219124 C727.643426,83.5219124 728.838645,81.8486056 728.838645,79.6494024 L728.838645,76.5896414 L735.340637,76.5896414 Z M758.438247,107.282869 C758.342629,106.85259 758.247012,105.513944 758.247012,104.89243 C757.003984,106.948207 754.278884,107.808765 751.888446,107.808765 C746.103586,107.808765 742.85259,103.601594 742.85259,98.5338645 L742.85259,83.5219124 L750.119522,83.5219124 L750.119522,97.0039841 C750.119522,99.2988048 751.36255,101.115538 753.944223,101.115538 C756.38247,101.115538 757.912351,99.4422311 757.912351,97.0517928 L757.912351,83.5219124 L765.179283,83.5219124 L765.179283,103.027888 C765.179283,105.179283 765.370518,106.900398 765.418327,107.282869 L758.438247,107.282869 Z M792.675299,72.6693227 L792.675299,103.027888 C792.675299,105.179283 792.818725,106.756972 792.866534,107.282869 L785.886454,107.282869 C785.838645,106.996016 785.695219,105.944223 785.695219,104.988048 C784.595618,106.613546 782.205179,107.808765 779.336653,107.808765 C772.643426,107.808765 767.575697,102.645418 767.575697,95.3306773 C767.575697,88.2549801 772.356574,82.9482072 779.09761,82.9482072 C783.161355,82.9482072 784.930279,84.4780876 785.503984,85.3864542 L785.503984,72.6693227 L792.675299,72.6693227 Z M774.890438,95.3784861 C774.890438,99.2988048 777.424303,101.306773 780.24502,101.306773 C783.065737,101.306773 785.599602,99.2988048 785.599602,95.3784861 C785.599602,91.4103586 783.065737,89.498008 780.24502,89.498008 C777.424303,89.498008 774.890438,91.4103586 774.890438,95.3784861 Z M802.482072,92.5577689 L811.996016,92.5577689 C811.900398,90.7410359 810.657371,88.5418327 807.215139,88.5418327 C804.155378,88.5418327 802.625498,90.7888446 802.482072,92.5577689 Z M812.521912,98.7250996 L818.593625,100.446215 C817.446215,104.557769 813.669323,108 807.645418,108 C801.095618,108 795.262948,103.314741 795.262948,95.3306773 C795.262948,87.6812749 800.952191,82.8047809 807.119522,82.8047809 C814.482072,82.8047809 819.023904,87.3466135 819.023904,94.9960159 C819.023904,96 818.928287,97.0996016 818.880478,97.2430279 L802.338645,97.2430279 C802.482072,99.9203187 804.920319,101.832669 807.741036,101.832669 C810.370518,101.832669 811.85259,100.589641 812.521912,98.7250996 Z"></path>
            </g>
        </g>
    </g>
</svg>