<?xml version="1.0" encoding="UTF-8"?>
<svg width="37px" height="37px" viewBox="0 0 37 37" version="1.1" xmlns="http://www.w3.org/2000/svg" xmlns:xlink="http://www.w3.org/1999/xlink">
    <!-- Generator: Sketch 53.2 (72643) - https://sketchapp.com -->
    <title>user-placeholder</title>
    <desc>Created with Sketch.</desc>
    <g id="Page-1" stroke="none" stroke-width="1" fill="none" fill-rule="evenodd">
        <g id="user-placeholder" fill="#666666" fill-rule="nonzero">
            <path d="M29.7511,32.5939 L29.7511,32.5939 C34.0429,29.1646 36.5062,24.0655 36.5062,18.58 C36.5062,8.6923 28.4677,0.6538 18.58,0.6538 C8.6923,0.6538 0.6538,8.6923 0.6538,18.58 C0.6538,24.0655 3.1171,29.1646 7.4089,32.5939 L8.6164,33.5116 L8.6164,33.4771 C9.3547,33.9739 10.1137,34.4086 10.8865,34.7743 C13.3015,35.9266 15.8959,36.5062 18.5869,36.5062 C21.2779,36.5062 23.8654,35.9197 26.2873,34.7743 C27.0532,34.4086 27.8191,33.9739 28.5574,33.4771 L28.5574,33.5323 L29.7511,32.5939 Z M8.5474,25.411 C8.4784,25.549 8.4163,25.687 8.3611,25.825 L8.3335,25.8871 C8.2921,25.9768 8.2507,26.0734 8.2093,26.17 C8.1541,26.3149 8.0989,26.4529 8.0506,26.5978 L8.2921,26.6875 L8.0506,26.6047 L8.023,26.6875 C7.9885,26.7772 7.9609,26.8669 7.9333,26.9566 C7.8919,27.0877 7.8574,27.2257 7.8022,27.4189 L7.7746,27.5224 C7.7539,27.6052 7.7263,27.688 7.7125,27.7708 C7.678,27.9088 7.6504,28.0537 7.6297,28.1917 L7.5952,28.3849 C7.5814,28.4539 7.5676,28.5298 7.5538,28.6057 C7.5262,28.7851 7.5055,28.9576 7.4848,29.1715 L7.471,29.2819 C7.4641,29.3371 7.4572,29.3992 7.4503,29.4544 C7.4296,29.7442 7.4158,30.0271 7.4158,30.3169 L7.4158,31.0138 C3.8761,27.8467 1.8613,23.3479 1.8613,18.58 C1.8613,9.3616 9.3616,1.8613 18.58,1.8613 C27.7984,1.8613 35.2987,9.3616 35.2987,18.58 C35.2987,23.3479 33.2839,27.8467 29.7511,31.0138 L29.7511,30.3169 C29.7511,30.0271 29.7373,29.7373 29.7166,29.4544 C29.7097,29.3992 29.7028,29.3371 29.6959,29.2819 L29.6821,29.137 C29.6614,28.9576 29.6476,28.7782 29.62,28.6057 C29.6062,28.5298 29.5924,28.4608 29.5786,28.3849 L29.5441,28.1917 C29.5165,28.0468 29.4889,27.9088 29.4613,27.7708 C29.4406,27.688 29.4199,27.6052 29.3992,27.5224 L29.3578,27.3568 C29.3233,27.2188 29.2819,27.0877 29.2405,26.9566 C29.2129,26.8669 29.1784,26.7772 29.1508,26.6875 L29.1163,26.5978 C29.068,26.4529 29.0128,26.308 28.9576,26.1631 C28.9162,26.0665 28.8748,25.9768 28.8334,25.8802 L28.8058,25.8181 C28.7437,25.6801 28.6816,25.5421 28.6195,25.4041 C28.5712,25.3075 28.5229,25.2109 28.4401,25.066 C28.3711,24.9349 28.2952,24.8038 28.2193,24.6727 C28.1572,24.5623 28.0882,24.4519 28.0192,24.3415 C27.9364,24.2173 27.8605,24.0931 27.7708,23.9689 C27.6949,23.8654 27.619,23.755 27.5431,23.6515 C27.4534,23.5342 27.3637,23.4169 27.2671,23.2996 C27.1843,23.1961 27.1015,23.0995 27.0187,23.0029 C26.9221,22.8925 26.8186,22.7821 26.722,22.6717 C26.6323,22.5751 26.5426,22.4854 26.4529,22.3957 C26.3494,22.2922 26.239,22.1887 26.1286,22.0921 C26.032,22.0024 25.9354,21.9196 25.8388,21.8299 C25.7215,21.7333 25.6042,21.6367 25.4662,21.5263 C25.3696,21.4504 25.2799,21.3745 25.1833,21.3055 C25.0591,21.2158 24.9349,21.133 24.7831,21.0295 C24.6865,20.9605 24.5899,20.8984 24.4864,20.8294 C24.3691,20.7535 24.2449,20.6845 24.0793,20.5948 L23.9827,20.5396 C23.9068,20.4982 23.8309,20.4499 23.7481,20.4085 C23.6239,20.3395 23.4928,20.2774 23.3203,20.2015 C23.3686,20.167 23.4169,20.1256 23.4721,20.0911 C23.6377,19.9669 23.7964,19.8358 23.9482,19.7047 C24.0586,19.6012 24.169,19.5046 24.2725,19.3942 C24.4174,19.2493 24.5554,19.1044 24.6865,18.9526 C24.7831,18.8422 24.8797,18.7249 24.9694,18.6076 C25.0936,18.4489 25.204,18.2833 25.3144,18.1177 C25.3972,17.9935 25.4731,17.8693 25.549,17.7451 C25.6525,17.5726 25.7422,17.3863 25.8319,17.2069 L25.8733,17.1241 C25.9216,17.0206 25.9768,16.9171 26.0182,16.8136 C26.101,16.6204 26.1631,16.4203 26.2321,16.2133 L26.2735,16.096 C26.3011,16.0063 26.3356,15.9166 26.3632,15.8269 C26.4253,15.5992 26.4667,15.3715 26.5081,15.1369 L26.5357,15.0127 C26.5495,14.9368 26.5633,14.8678 26.5771,14.7919 C26.6254,14.4262 26.653,14.0674 26.653,13.7224 C26.653,9.2857 23.0443,5.6701 18.6007,5.6701 C14.1571,5.6701 10.5484,9.2788 10.5484,13.7224 C10.5484,14.0674 10.576,14.4262 10.6243,14.7919 C10.6312,14.8678 10.6519,14.9368 10.6657,15.0127 L10.6933,15.1369 C10.7347,15.3715 10.7761,15.5992 10.8382,15.8269 C10.8658,15.9166 10.8934,16.0063 10.9279,16.096 L10.9693,16.2133 C11.0383,16.4134 11.1004,16.6135 11.1832,16.8136 C11.2246,16.9171 11.2798,17.0206 11.3281,17.1241 L11.3695,17.2069 C11.4592,17.3932 11.5489,17.5726 11.6524,17.7451 C11.7283,17.8762 11.8042,17.9935 11.887,18.1177 C11.9974,18.2833 12.1078,18.4489 12.232,18.6076 C12.3217,18.7249 12.4183,18.8422 12.5149,18.9526 C12.646,19.1044 12.784,19.2493 12.922,19.3942 C13.0255,19.4977 13.1359,19.6012 13.2463,19.7047 C13.3981,19.8427 13.5568,19.9669 13.7362,20.1049 C13.7845,20.1394 13.8259,20.1739 13.8742,20.2084 L13.8397,20.2291 C13.7086,20.2912 13.5775,20.3533 13.4464,20.4223 C13.3705,20.4637 13.2877,20.5051 13.2118,20.5534 L13.0738,20.6293 C12.9496,20.6983 12.8254,20.7673 12.7081,20.8432 C12.6046,20.9053 12.508,20.9743 12.3907,21.0571 C12.2665,21.1399 12.1354,21.2296 12.0112,21.3193 C11.9146,21.3883 11.818,21.4642 11.7007,21.5539 C11.5834,21.6436 11.4661,21.7402 11.3488,21.8368 C11.2522,21.9196 11.1556,22.0093 11.059,22.099 C10.9486,22.2025 10.8382,22.2991 10.7347,22.4095 C10.645,22.4992 10.5553,22.5958 10.4656,22.6924 C10.3621,22.8028 10.2655,22.9132 10.1689,23.0236 C10.0861,23.1202 10.0033,23.2237 9.9205,23.3203 C9.8239,23.4376 9.7342,23.5549 9.6514,23.6722 C9.5755,23.7757 9.4996,23.8792 9.4237,23.9827 C9.3409,24.1069 9.2581,24.2311 9.1753,24.3553 C9.1063,24.4657 9.0373,24.5761 8.9752,24.6865 C8.8993,24.8176 8.8303,24.9487 8.7268,25.135 C8.6509,25.2178 8.5957,25.3144 8.5474,25.411 Z M21.7264,19.7944 C19.753,20.8156 17.4001,20.8156 15.4267,19.7944 C13.1497,18.6076 11.7352,16.2823 11.7352,13.7224 C11.7352,9.9481 14.8057,6.8776 18.58,6.8776 C22.3543,6.8776 25.4248,9.9481 25.4248,13.7224 C25.4248,16.2823 24.0103,18.6076 21.7264,19.7944 Z M28.3711,32.1247 L28.2193,32.2351 C28.1503,32.2834 28.0813,32.3386 28.0054,32.3869 C27.895,32.4628 27.7846,32.5318 27.6673,32.6077 L27.4741,32.7319 C27.4051,32.7733 27.343,32.8216 27.274,32.863 C27.1567,32.9389 27.0325,33.0079 26.9083,33.0769 L26.5219,33.2977 C26.2666,33.4357 26.0113,33.5668 25.756,33.691 C23.4997,34.7605 21.0847,35.3056 18.58,35.3056 C16.0753,35.3056 13.6534,34.7605 11.404,33.691 C11.1487,33.5668 10.8934,33.4357 10.6381,33.3046 L10.2517,33.07 C10.1275,33.001 10.0102,32.932 9.886,32.8561 C9.817,32.8147 9.7549,32.7733 9.6859,32.725 L9.4927,32.6008 C9.3823,32.5318 9.265,32.4559 9.1546,32.38 C9.0856,32.3317 9.0097,32.2765 8.9407,32.2282 L8.7889,32.1178 C8.7268,32.0764 8.6716,32.035 8.6095,31.9867 L8.6095,30.31 C8.6095,30.0478 8.6233,29.7856 8.644,29.5234 C8.6509,29.4682 8.6578,29.4199 8.6647,29.3716 L8.6854,29.1646 C8.6992,29.0266 8.713,28.8886 8.7337,28.7506 C8.7406,28.6885 8.7544,28.6333 8.7682,28.5712 L8.8165,28.3366 C8.8372,28.2262 8.8579,28.1089 8.8855,27.9985 C8.8993,27.9295 8.92,27.8605 8.9407,27.7984 L9.0097,27.5638 C9.0373,27.4603 9.0649,27.3637 9.0925,27.2671 C9.1132,27.1981 9.1408,27.1291 9.1615,27.067 L9.2512,26.8255 C9.2857,26.7358 9.3133,26.6392 9.3547,26.5495 C9.3823,26.4805 9.4168,26.4115 9.4444,26.3425 L9.5479,26.1217 C9.5893,26.032 9.6238,25.9423 9.6721,25.8595 C9.7066,25.7905 9.748,25.7146 9.7894,25.6456 L9.8998,25.4386 C9.9412,25.3558 9.9895,25.273 10.0378,25.1971 C10.0792,25.1281 10.1275,25.0591 10.1758,24.9901 L10.3,24.8038 C10.3483,24.721 10.4035,24.6451 10.4587,24.5623 C10.507,24.5002 10.5553,24.4312 10.6036,24.3691 L10.7554,24.1759 C10.8106,24.1069 10.8658,24.031 10.921,23.962 C10.9762,23.8999 11.0314,23.8378 11.0866,23.7757 L11.2315,23.6101 C11.2936,23.5411 11.3557,23.4652 11.4247,23.3962 C11.4868,23.3341 11.5489,23.272 11.611,23.2099 L11.7766,23.0512 C11.8387,22.9891 11.9077,22.927 11.9698,22.8649 C12.0388,22.8028 12.1147,22.7407 12.1906,22.6786 L12.3493,22.5475 C12.4183,22.4923 12.4873,22.4302 12.5563,22.3819 C12.6391,22.3198 12.7219,22.2646 12.8047,22.2025 L12.9634,22.0921 C13.0393,22.0369 13.1083,21.9886 13.1842,21.9403 C13.2601,21.892 13.3429,21.8437 13.4257,21.7954 L13.6189,21.6781 C13.6948,21.6298 13.7707,21.5884 13.8466,21.547 C13.9432,21.4918 14.0467,21.4435 14.1433,21.3952 L14.2951,21.34 C14.3779,21.2986 14.4607,21.2572 14.5435,21.2227 C14.647,21.1744 14.7574,21.133 14.8609,21.0916 L14.992,21.0364 C15.0334,21.0226 15.0748,21.0019 15.1231,20.9881 C15.1783,21.0157 15.2335,21.0364 15.2887,21.0571 L15.5302,21.1606 C15.6268,21.202 15.7234,21.2503 15.8269,21.2848 C15.9028,21.3124 15.9856,21.34 16.0684,21.3607 L16.2478,21.4159 C16.4134,21.4711 16.579,21.5194 16.7515,21.5608 C16.786,21.5677 16.8136,21.5746 16.8895,21.5884 C18.0694,21.8437 19.0561,21.8506 20.3257,21.5815 C20.3602,21.5746 20.3878,21.5677 20.4154,21.5608 C20.5879,21.5194 20.7466,21.4711 20.9122,21.4159 L21.0916,21.3607 C21.1744,21.34 21.2503,21.3124 21.3331,21.2848 C21.4297,21.2503 21.5332,21.202 21.6298,21.1606 L21.8713,21.0571 C21.9265,21.0364 21.9817,21.0157 22.0369,20.9881 C22.0783,21.0019 22.1197,21.0226 22.168,21.0364 L22.2991,21.0916 C22.4026,21.133 22.513,21.1744 22.6165,21.2227 C22.6993,21.2572 22.7821,21.2986 22.8649,21.34 L23.0167,21.4159 C23.1202,21.4642 23.2168,21.5125 23.3134,21.5677 C23.3893,21.6091 23.4652,21.6574 23.5411,21.6988 L23.7343,21.8161 C23.8171,21.8644 23.8999,21.9127 23.9758,21.961 C24.0517,22.0093 24.1276,22.0645 24.1966,22.1128 L24.3553,22.2232 C24.4381,22.2784 24.5209,22.3405 24.6037,22.4026 C24.6727,22.4578 24.7417,22.513 24.8107,22.5682 L24.9694,22.6993 C25.0453,22.7614 25.1212,22.8166 25.1902,22.8856 C25.2592,22.9477 25.3213,23.0098 25.3834,23.0719 L25.549,23.2306 C25.6111,23.2927 25.6732,23.3479 25.7353,23.4169 C25.8043,23.4859 25.8664,23.5549 25.9285,23.6308 L26.0734,23.7964 C26.1286,23.8585 26.1838,23.9206 26.239,23.9827 C26.2942,24.0517 26.3494,24.1276 26.4046,24.1966 L26.5564,24.3898 C26.6047,24.4519 26.653,24.514 26.7013,24.583 C26.7565,24.6589 26.8048,24.7417 26.86,24.8176 L26.9842,25.0039 C27.0325,25.0729 27.0739,25.1419 27.1222,25.2109 C27.1705,25.2937 27.2119,25.3696 27.2602,25.4524 L27.3706,25.6594 C27.412,25.7284 27.4465,25.7974 27.4879,25.8733 C27.5293,25.963 27.5707,26.0458 27.6121,26.1355 L27.7156,26.3563 C27.7501,26.4253 27.7777,26.4943 27.8122,26.5633 C27.8467,26.653 27.8812,26.7427 27.9157,26.8393 L28.0054,27.0808 C28.033,27.1498 28.0537,27.2119 28.0744,27.2809 C28.1089,27.3775 28.1296,27.481 28.1572,27.5776 L28.2262,27.8122 C28.2469,27.8812 28.2676,27.9433 28.2814,28.0123 C28.309,28.1227 28.3297,28.24 28.3504,28.3504 L28.3987,28.585 C28.4125,28.6471 28.4263,28.7023 28.4332,28.7644 C28.4539,28.9024 28.4677,29.0404 28.4815,29.1784 L28.5022,29.3854 C28.5091,29.4337 28.516,29.4889 28.5229,29.5372 C28.5436,29.7994 28.5574,30.0616 28.5574,30.3238 L28.5574,32.0005 C28.4884,32.0419 28.4263,32.0833 28.3711,32.1247 Z" id="Shape"></path>
        </g>
    </g>
</svg>